<svg width="2797" height="2825" version="1.1" xmlns="http://www.w3.org/2000/svg" desc="Created with imagetracer.js version 1.2.6" ><path fill="rgb(40,40,40)" stroke="rgb(40,40,40)" stroke-width="1" opacity="0.1843137254901961" d="M 1612.5 732 Q 1614 734.5 1619.5 733 L 1624.5 732 Q 1626 735.5 1627.5 733 Q 1633 734.5 1634.5 732 L 1636 736 L 1645.5 734 L 1645.5 735 L 1643 736.5 Q 1642.5 739.5 1649.5 738 Q 1652.2 740.8 1658.5 740 L 1659.5 739 L 1662.5 742 L 1669.5 741 L 1678.5 746 L 1681.5 745 L 1683 748 L 1688 748 L 1688 750.5 Q 1688.8 752.8 1692.5 752 L 1695.5 755 L 1699 754 L 1700.5 758 L 1705 757 Q 1703.3 761.1 1707.5 760 Q 1709.2 757.2 1711 761.5 Q 1710.2 764.1 1713.5 763 L 1722 769.5 L 1723 773 Q 1726.8 772 1728 774.5 L 1731.5 779 L 1735 780.5 L 1737.5 784 Q 1740.1 784.7 1739 782 L 1741 782 L 1744.5 790 L 1746.5 789 L 1751 797 L 1755 798.5 L 1758.5 804 Q 1761.5 803.1 1760 807.5 L 1763 809 L 1766.5 816 L 1769 817.5 L 1770 822.5 Q 1774.3 825.4 1775 831 L 1779 833.5 L 1783 844.5 L 1782 846.5 L 1789.5 857 L 1790.5 853 L 1793 855.5 L 1793 858.5 L 1795 861.5 L 1811 911.5 L 1811 913.5 L 1810.5 915 L 1807.5 910 L 1807 916.5 L 1807 918.5 Q 1807.8 920.8 1805.5 920 L 1804 916.5 L 1805 912.5 L 1798 886.5 L 1789 861.5 L 1782 850.5 L 1775 833.5 L 1765 817 L 1761 814.5 L 1755.5 806 Q 1750.5 806.5 1750 802.5 Q 1750.5 798.5 1747.5 798 L 1738 789.5 Q 1738.8 787.3 1736.5 788 L 1733 785.5 L 1726.5 778 Q 1723.2 779.1 1724 776.5 L 1719 774 Q 1720.3 771 1716.5 772 L 1711 768 L 1709.5 765 L 1706.5 765 L 1703.5 762 L 1695 758.5 L 1693.5 756 L 1690.5 757 L 1688 753 L 1676.5 751 Q 1673.6 746.4 1666.5 746 L 1663.5 747 L 1662 744 L 1655.5 744 Q 1656.5 740.8 1650.5 742 L 1648.5 743 L 1642.5 740 L 1634.5 740 Q 1630.4 736.1 1621.5 737 Q 1620 739.5 1614.5 738 L 1611.5 736 L 1600.5 739 L 1597.5 737 L 1595.5 737 L 1568.5 744 L 1566.5 743 L 1543 751.5 L 1543.5 753 L 1524.5 759 L 1519 762 Q 1520.1 764.7 1517.5 764 Q 1514.1 769.4 1507 770 L 1502.5 777 L 1497 779 L 1491.5 787 L 1486 790 L 1482.5 796 Q 1478.5 795.5 1478 798.5 L 1474.5 804 L 1472 805.5 Q 1472.8 809.3 1470.5 810 L 1467 812.5 L 1460.5 823 L 1453.5 824 Q 1449.3 820.3 1448 813.5 L 1444.5 810 L 1441 808.5 Q 1439.2 801.3 1433.5 798 L 1431 796.5 L 1429.5 794 L 1424 792 Q 1425 788.2 1422.5 787 L 1419.5 787 L 1410 780 Q 1411.1 777.3 1408.5 778 L 1391.5 765 L 1388 766 Q 1389.8 761.5 1384.5 763 L 1375.5 757 Q 1370.5 758 1369.5 755 L 1364.5 755 Q 1363.7 751.2 1358.5 752 L 1357.5 753 L 1354.5 750 L 1346.5 750 L 1344.5 748 L 1338.5 747 L 1336.5 748 L 1325.5 745 Q 1324 747.5 1318.5 746 Q 1317.1 743.4 1312.5 744 L 1304.5 747 L 1302.5 745 L 1293.5 745 L 1280.5 749 Q 1278.8 746.3 1272.5 748 L 1246.5 756 L 1232 763.5 L 1232.5 765 Q 1220.8 767.3 1213 773.5 Q 1213.8 775.8 1211.5 775 L 1200 782.5 L 1197.5 787 L 1191 790 L 1188 796 L 1181.5 799 L 1177 803.5 Q 1178.5 807.9 1175.5 807 L 1170 810.5 L 1167.5 815 L 1164 816 L 1164 821 L 1162.5 821 L 1160 822 L 1159 828 Q 1156 827 1157 830 L 1154 830 L 1154 832.5 L 1148 843 L 1144 845.5 Q 1144.8 849.3 1142.5 850 Q 1139.9 849.2 1141 852.5 L 1133 867.5 L 1130 870.5 L 1129 876.5 L 1122 890.5 L 1122 895.5 L 1118 904.5 L 1118 909.5 L 1115 912.5 L 1113 925.5 L 1111 930.5 L 1111 939.5 L 1109 945.5 Q 1110.6 955.6 1108 961.5 Q 1111.5 963 1109 964.5 L 1107 974.5 L 1108 975.5 L 1108 983.5 Q 1105.3 985.3 1107 991.5 L 1109 997.5 L 1109 999.5 L 1108 1009.5 L 1112 1022.5 L 1111 1027.5 L 1112 1028.5 L 1112 1035.5 L 1115 1046.5 L 1115 1051.5 Q 1116.9 1061.6 1122 1068.5 L 1124 1083.5 L 1129 1098.5 L 1134 1105.5 L 1134 1110.5 L 1138 1118.5 L 1138 1120.5 L 1139 1126.5 L 1147 1140.5 L 1154 1158.5 L 1158 1163.5 Q 1161.1 1175.9 1168.5 1184 Q 1170.8 1183.3 1170 1185.5 Q 1172.8 1187.2 1172 1192.5 L 1176.5 1200 Q 1178.8 1199.3 1178 1201.5 L 1181 1204.5 L 1185 1215 L 1189 1217.5 L 1195 1227.5 L 1195 1230.5 L 1202.5 1239 Q 1204.8 1238.3 1204 1240.5 L 1208 1248.5 L 1215.5 1258 Q 1217.8 1257.3 1217 1259.5 L 1224.5 1272 L 1227 1273.5 Q 1227.9 1280.1 1232.5 1283 L 1236 1284 L 1240 1294.5 L 1240 1299.5 L 1234.5 1303 L 1226.5 1305 L 1203.5 1308 L 1170.5 1319 Q 1164.4 1324.3 1156 1326 Q 1157.1 1328.7 1154.5 1328 L 1135.5 1335 L 1129.5 1341 L 1117.5 1347 L 1106.5 1356 L 1102.5 1357 L 1093 1365.5 Q 1093.8 1367.8 1091.5 1367 L 1082 1372 L 1080.5 1376 L 1075 1378.5 Q 1075.8 1382.3 1073.5 1383 L 1071 1384.5 L 1069.5 1387 Q 1067.3 1386.3 1068 1388.5 L 1060 1393 L 1055.5 1401 L 1053 1401 Q 1054.1 1403.7 1051.5 1403 L 1048.5 1407 L 1046 1408.5 L 1044.5 1411 Q 1041.5 1410.1 1043 1414.5 L 1037 1419.5 L 1038 1421.5 L 1033 1424.5 L 1033 1427.5 L 1023.5 1441 L 1020 1443.5 Q 1020.5 1448 1017 1448.5 L 1017 1452 L 1014 1453.5 L 1000 1479.5 Q 1001 1485.5 997 1486.5 L 997 1492 Q 994 1490.8 995 1494.5 L 988 1510.5 L 987 1516.5 L 985 1518.5 L 983 1529.5 L 984 1531.5 L 981 1534.5 L 981 1542.5 L 977 1549.5 Q 978.6 1557.6 975 1560.5 L 976 1563.5 L 974 1569.5 L 974 1575.5 L 975 1577.5 Q 971.5 1579 973 1585.5 L 974 1589 L 972 1589.5 L 972 1603.5 Q 976 1605.5 972 1607.5 L 971 1614.5 Q 974 1617.5 973 1624.5 L 972 1627.5 L 972 1629.5 L 971 1632.5 L 974 1637.5 L 975 1642.5 L 974 1643.5 L 973 1656.5 L 978 1668.5 L 979 1677.5 Q 976.2 1679.3 978 1685.5 L 991 1726.5 L 990 1731.5 L 997 1753.5 L 1001 1760.5 L 1004 1772.5 L 1012 1789.5 L 1018 1809.5 Q 1021 1818.5 1028 1823.5 L 1032 1837.5 L 1036.5 1843 L 1039 1844.5 L 1042 1848.5 L 1044 1858 L 1052 1863 L 1056 1872.5 L 1059.5 1876 L 1063 1878.5 L 1062 1881 L 1065 1882.5 L 1069.5 1889 Q 1072.8 1887.9 1072 1890.5 L 1075.5 1896 Q 1079.9 1894.5 1079 1897.5 L 1083 1900.5 L 1084.5 1903 Q 1086.8 1902.3 1086 1904.5 L 1090 1907.5 Q 1089.3 1909.8 1091.5 1909 L 1098 1913.5 L 1097 1916 L 1101.5 1919 L 1104.5 1919 L 1107 1921.5 Q 1106.3 1923.8 1108.5 1923 L 1109.5 1922 L 1112.5 1925 L 1114.5 1925 L 1120 1929.5 L 1119 1932 L 1122.5 1931 L 1124 1935 L 1127.5 1935 L 1130.5 1938 L 1133.5 1938 L 1142.5 1944 L 1146 1944 Q 1144.9 1946.7 1147.5 1946 L 1152.5 1949 L 1156.5 1949 L 1158.5 1951 L 1165.5 1952 L 1179.5 1958 L 1181.5 1957 L 1190.5 1959 L 1197.5 1963 L 1200.5 1963 L 1202.5 1963 L 1207.5 1965 L 1213 1964 Q 1211.6 1968 1218.5 1966 L 1219.5 1967 L 1240.5 1969 L 1243.5 1971 Q 1244.3 1968.3 1248.5 1969 Q 1250.7 1972.8 1257.5 1972 Q 1258.8 1968.8 1264.5 1970 L 1264.5 1972 L 1269.5 1973 L 1276 1971 L 1276.5 1973 L 1286.5 1973 L 1289.5 1972 L 1290.5 1973 L 1302.5 1974 Q 1303.9 1971.4 1308.5 1972 L 1309.5 1973 L 1320.5 1974 Q 1321.7 1970.8 1327.5 1972 L 1335.5 1974 L 1338.5 1972 L 1346.5 1971 Q 1349.8 1973.7 1356.5 1973 L 1365 1970 Q 1363.9 1972.7 1366.5 1972 L 1367.5 1971 L 1377.5 1971 L 1380.5 1969 L 1386.5 1968 L 1387.5 1969 L 1398.5 1969 L 1402.5 1967 L 1411.5 1966 L 1416.5 1967 L 1417.5 1966 L 1429.5 1965 L 1434.5 1963 L 1437.5 1964 L 1440.5 1962 L 1441.5 1963 L 1453.5 1964 L 1470.5 1958 L 1487.5 1958 L 1516.5 1948 L 1541.5 1944 L 1582.5 1931 L 1596.5 1925 L 1601.5 1921 L 1632.5 1910 L 1638.5 1904 L 1656.5 1898 L 1662 1893.5 L 1664 1890.5 L 1682 1879.5 L 1683.5 1877 L 1694.5 1872 L 1697 1869.5 L 1699.5 1866 L 1708 1863 Q 1706.9 1860.3 1709.5 1861 L 1712 1857 L 1720 1853.5 L 1725.5 1847 L 1729 1846 L 1731.5 1840 L 1744 1830.5 Q 1747.9 1828.4 1747 1823 L 1749.5 1824 Q 1755.3 1820.3 1757.5 1813 L 1759.5 1813 Q 1762.5 1813.9 1761 1809.5 L 1766 1806 L 1768.5 1799 Q 1772.3 1800.3 1771 1796.5 L 1788 1775.5 L 1788 1772.5 L 1792 1768.5 L 1796 1757.5 L 1801.5 1748 L 1804 1746.5 L 1805 1742.5 L 1813 1729.5 L 1815 1716 L 1818 1714.5 Q 1817.2 1709.2 1821 1708.5 L 1823 1695.5 L 1825 1692.5 L 1825 1690.5 L 1824 1686.5 L 1828 1678.5 L 1827 1675.5 L 1830 1662.5 L 1829 1660 L 1832 1658.5 L 1831 1650 L 1833 1649.5 L 1833 1642.5 L 1832 1637.5 L 1834 1635.5 L 1834 1625.5 Q 1831.5 1624 1833 1618.5 L 1839.5 1614 L 1850.5 1610 L 1868.5 1606 L 1918.5 1589 L 1940.5 1579 L 1945.5 1578 L 1958.5 1571 L 1974.5 1566 L 2001.5 1552 L 2020.5 1546 L 2023 1543.5 L 2026 1536.5 L 2029 1533.5 L 2029 1527.5 L 2025 1518 L 2021.5 1518 L 2015.5 1513 L 2007.5 1513 Q 2006 1515.5 2004.5 1512 L 1979.5 1515 L 1978.5 1514 L 1967.5 1514 Q 1965.8 1516.8 1959.5 1515 L 1952.5 1513 L 1946.5 1516 L 1940.5 1516 L 1938.5 1516 L 1931.5 1515 L 1926.5 1517 L 1924.5 1516 L 1922.5 1516 L 1918.5 1517 Q 1917 1514.5 1911.5 1516 L 1910.5 1517 L 1869.5 1520 L 1868.5 1521 L 1840.5 1522 L 1831.5 1525 L 1829.5 1525 L 1822.5 1523 L 1817.5 1523 L 1816 1521.5 Q 1816.8 1519.3 1814.5 1520 L 1810 1510.5 L 1807 1507.5 L 1803 1497.5 L 1802 1490.5 L 1799.5 1487 Q 1797.3 1487.8 1798 1485.5 L 1791 1475.5 Q 1788.4 1472.6 1789 1466.5 L 1786.5 1464 L 1784 1462.5 L 1782.5 1460 L 1780 1458.5 L 1771 1442 L 1767 1439.5 L 1764 1432.5 L 1752.5 1419 Q 1751.2 1421.3 1750 1418.5 Q 1747.2 1416.5 1748 1412 L 1744 1411 Q 1745.1 1408.3 1742.5 1409 Q 1739.3 1407.8 1740 1404 L 1737 1402.5 Q 1737.8 1400.3 1735.5 1401 L 1731 1396.5 L 1731 1394 L 1723 1389.5 L 1719.5 1383 Q 1715.8 1383.8 1715 1381.5 L 1713 1376 L 1708.5 1373 L 1706 1373 L 1704.5 1369 L 1701 1367.5 L 1699 1363 L 1695.5 1363 L 1690 1360 L 1687.5 1355 Q 1682.5 1355.5 1682 1351.5 L 1680.5 1349 L 1674 1345 Q 1675.1 1342.3 1672.5 1343 L 1664.5 1337 L 1653 1333 Q 1654.5 1329.3 1651.5 1330 L 1650 1327 L 1645 1326 Q 1646.3 1323 1642.5 1324 L 1640 1323 L 1638.5 1320 L 1630.5 1318 L 1620.5 1311 L 1613.5 1309 L 1609.5 1305 L 1589.5 1295 L 1585.5 1295 Q 1584.1 1291.4 1578.5 1292 L 1570.5 1287 L 1559.5 1284 L 1556 1280.5 L 1555 1277.5 L 1556 1275 L 1565.5 1272 L 1567.5 1270 L 1571.5 1270 L 1583.5 1261 L 1590.5 1259 Q 1597 1252 1607 1250 Q 1605.5 1246.3 1608.5 1247 L 1615.5 1243 L 1620.5 1242 L 1626 1237.5 Q 1623.7 1236.3 1626.5 1235 L 1638 1229.5 Q 1635.2 1227.8 1639.5 1226 L 1649.5 1223 L 1652 1220.5 L 1655.5 1215 Q 1657.5 1212.2 1662 1213 L 1664.5 1209 L 1679 1198.5 L 1680.5 1195 L 1690 1189.5 Q 1689.3 1187.3 1691.5 1188 L 1700 1180.5 L 1701.5 1178 L 1708 1173.5 Q 1706.9 1170.2 1709.5 1171 L 1715 1166.5 L 1719 1161.5 L 1719 1159 L 1726 1154.5 Q 1724.9 1151.2 1727.5 1152 L 1733 1147.5 L 1738.5 1139 Q 1740.8 1139.8 1740 1137.5 Q 1742.8 1136.4 1742 1133 L 1749 1128.5 Q 1748.3 1124.8 1750.5 1124 L 1753 1122.5 L 1763.5 1106 Q 1766.5 1106.9 1765 1102.5 L 1777 1083.5 L 1777 1080.5 Q 1781.9 1076.8 1783 1070 L 1785 1069.5 L 1784 1068.5 L 1788 1064.5 L 1787 1063.5 L 1788 1057.5 L 1791 1053.5 L 1795 1038.5 L 1798 1033.5 L 1798 1030 Q 1801.7 1031.3 1800 1025.5 L 1803 1021.5 Q 1800.8 1020.3 1802 1015.5 L 1804 1011.5 L 1805 1007.5 L 1804 1004.5 L 1807 998.5 L 1806 996.5 L 1809 983.5 Q 1806.5 982 1808 976.5 Q 1811 975.5 1810 970.5 L 1809 969.5 L 1809 961.5 Q 1811.5 960 1810 954.5 L 1808 948.5 L 1809 947.5 L 1809 935.5 L 1805 922.5 L 1808 924.5 L 1812 935.5 L 1812 941.5 L 1811 943.5 L 1813 949.5 L 1811 952.5 Q 1815 953.5 1814 959.5 L 1813 963.5 L 1814 968.5 L 1813 971.5 L 1814 974.5 Q 1811.7 975.7 1813 980.5 L 1813 982.5 L 1812 984.5 L 1814 991.5 L 1813 995 Q 1809.3 993.6 1811 999.5 L 1812 1003.5 L 1810.5 1003 L 1808 1004.5 L 1809 1011 Q 1806 1009.8 1807 1013.5 L 1807 1015.5 L 1808 1020.5 L 1805 1023.5 L 1803 1036.5 L 1799 1043.5 L 1799 1050 L 1795 1050 L 1795 1051.5 L 1796 1056 Q 1790.8 1054.2 1793 1061.5 L 1787 1076 Q 1783.7 1074.7 1785 1079.5 L 1786 1082 Q 1781.1 1080.2 1783 1086.5 L 1779 1089.5 L 1777 1092.5 L 1770.5 1102 Q 1767.9 1101.2 1769 1104.5 Q 1765 1105.9 1766 1111 L 1763 1112.5 Q 1763.8 1118.3 1759.5 1119 Q 1755.8 1118 1757 1121 Q 1759.7 1119.9 1759 1122.5 L 1753 1126.5 L 1750 1135 Q 1747.3 1133.9 1748 1136.5 L 1748 1138.5 Q 1748.8 1141.1 1745.5 1140 L 1742 1139 L 1740.5 1143 Q 1738.3 1142.3 1739 1144.5 L 1739 1146.5 L 1736.5 1149 Q 1733.2 1147.9 1734 1150.5 L 1733 1154 L 1727 1156 L 1728 1160.5 L 1721 1164 L 1722 1166.5 L 1715.5 1172 Q 1714.3 1169.8 1713 1172.5 L 1708.5 1179 Q 1705.2 1177.9 1706 1180.5 L 1687.5 1196 L 1683 1196 L 1680 1201.5 Q 1683.8 1203.3 1680.5 1205 L 1673 1207 Q 1671.9 1209.7 1674.5 1209 L 1672.5 1212 L 1670.5 1212 L 1665.5 1216 L 1662 1216 L 1661 1220 L 1655 1222 L 1653.5 1225 L 1647.5 1226 L 1646 1227.5 L 1644.5 1230 L 1635.5 1236 L 1633.5 1235 L 1630 1236.5 Q 1632.8 1238.3 1628.5 1240 L 1624 1242.5 Q 1624.8 1244.8 1622.5 1244 Q 1619.5 1247 1612.5 1246 L 1611 1247.5 Q 1612.1 1250.8 1609.5 1250 L 1605 1253.5 Q 1604.3 1255.8 1606.5 1255 L 1606.5 1256 L 1585 1264.5 L 1590 1265.5 L 1573.5 1274 L 1564.5 1275 L 1562.5 1277 Q 1561.3 1274.8 1560 1277.5 L 1563.5 1282 L 1565.5 1282 L 1569.5 1282 L 1573.5 1285 L 1577 1284 Q 1574.9 1289.2 1579.5 1288 L 1583 1287 L 1584.5 1291 L 1592.5 1292 L 1606.5 1299 L 1607.5 1298 L 1610.5 1301 L 1615 1300 L 1617 1307 L 1622 1307 L 1622 1308.5 L 1633.5 1316 Q 1638 1315 1639 1317.5 L 1639 1319 L 1643 1319 L 1643 1320.5 Q 1643.8 1322.8 1647.5 1322 L 1650 1321 L 1650 1325 L 1651.5 1325 L 1653.5 1325 Q 1655.8 1324.3 1655 1326.5 L 1661 1329.5 Q 1660.2 1332.1 1663.5 1331 L 1674 1339.5 Q 1673.3 1341.8 1675.5 1341 L 1679 1342.5 L 1681 1348 L 1686 1347 L 1688 1353 L 1691.5 1352 L 1694 1356 Q 1697.8 1355 1699 1357.5 L 1700.5 1360 L 1705 1363.5 L 1707.5 1368 L 1711 1369.5 L 1713 1374 L 1718 1375 L 1720 1381 L 1723.5 1380 L 1728.5 1389 Q 1730.8 1389.8 1730 1387.5 L 1733 1389.5 L 1735.5 1395 L 1737.5 1394 L 1743.5 1403 L 1746 1404.5 L 1749.5 1410 L 1751 1410 L 1751 1414 L 1752.5 1414 L 1761 1422.5 Q 1762.7 1429.3 1768 1432.5 L 1768 1437 L 1772 1439.5 L 1774.5 1444 L 1776 1442.5 L 1775 1439.5 L 1775.5 1438 L 1782 1452.5 Q 1779.8 1453.8 1782.5 1455 Q 1785.1 1455.8 1784 1452.5 L 1785 1452.5 L 1792 1464.5 L 1793 1471 Q 1796.7 1469.5 1796 1472.5 L 1800 1481.5 L 1804 1485.5 L 1806 1499 Q 1811.2 1496.9 1810 1501.5 L 1817.5 1519 L 1819.5 1519 L 1823.5 1520 L 1824.5 1519 L 1833.5 1519 Q 1835.5 1523 1837.5 1519 L 1843.5 1517 L 1856 1516 Q 1854.8 1519 1858.5 1518 L 1859.5 1519 L 1863.5 1517 L 1871.5 1514 L 1875.5 1514 L 1875 1515.5 L 1874 1517.5 L 1878.5 1518 L 1885.5 1515 L 1889.5 1515 L 1891.5 1516 L 1893.5 1515 L 1897.5 1516 L 1906.5 1513 Q 1908 1516.5 1909.5 1514 L 1914.5 1512 Q 1916.3 1514.7 1922.5 1513 L 1929.5 1511 L 1932.5 1512 L 1933.5 1511 L 1944 1511 Q 1942.9 1514.3 1947 1513 Q 1945.9 1510.3 1948.5 1511 Q 1954.6 1507.6 1965.5 1509 L 1968.5 1511 L 1971.5 1509 L 1981.5 1508 L 1980.5 1511 Q 1987.7 1512.8 1989.5 1509 Q 1991 1511.5 1992.5 1508 L 1996.5 1507 L 1997.5 1510 L 2008.5 1509 L 2010.5 1510 Q 2012.3 1507.3 2018.5 1509 L 2022.5 1510 L 2025 1512.5 L 2027.5 1517 Q 2030.1 1516.2 2029 1519.5 L 2032 1525.5 L 2032 1527.5 L 2033 1531.5 L 2032 1536.5 L 2033 1538.5 L 2030 1545 L 2023.5 1549 L 2021.5 1549 L 2009 1553.5 Q 2009.8 1555.8 2007.5 1555 Q 1996.5 1561.5 1982.5 1565 L 1976.5 1569 L 1970.5 1570 L 1951 1577.5 Q 1951.8 1580.1 1948.5 1579 L 1932.5 1585 L 1917.5 1593 L 1915.5 1593 L 1887.5 1602 L 1885.5 1602 L 1848.5 1614 Q 1846.5 1617.5 1840.5 1617 L 1836 1620.5 L 1840 1633.5 Q 1838.7 1636.2 1837.5 1634 Q 1834.1 1633.1 1836 1638.5 Q 1832 1640.5 1836 1642.5 L 1837 1645.5 L 1835 1650.5 L 1835 1652.5 L 1834 1660.5 Q 1836.2 1661.7 1835 1666.5 L 1833 1674.5 L 1834 1677 Q 1830 1675.6 1832 1682.5 L 1829 1684 L 1831 1692.5 Q 1829.8 1695.2 1828.5 1693 Q 1825.5 1692.1 1827 1696.5 L 1828 1698.5 L 1825 1701.5 Q 1826.5 1707.5 1823.5 1709 Q 1821.3 1708.3 1822 1710.5 L 1822 1712.5 L 1820 1717.5 L 1820 1719.5 L 1819 1722.5 L 1819 1724.5 Q 1820.3 1730.6 1817.5 1730 L 1814.5 1736 Q 1811.9 1735.2 1813 1738.5 L 1809 1741.5 L 1802 1754.5 L 1801 1761.5 Q 1797 1762.9 1798 1768 L 1795 1769.5 L 1793.5 1772 L 1791 1773.5 L 1786.5 1782 L 1785 1782 L 1785 1787 L 1783.5 1787 L 1782 1789.5 Q 1785.8 1791.2 1782.5 1793 L 1777 1795 Q 1778 1799.7 1774.5 1801 Q 1772.3 1800.3 1773 1802.5 L 1772 1805 L 1769 1806.5 L 1767.5 1809 L 1765 1810.5 Q 1762.2 1812.5 1763 1817 L 1756 1821.5 L 1753.5 1825 L 1748 1827 L 1750 1832 L 1746.5 1832 L 1742 1835.5 L 1744 1836 Q 1745.1 1838.7 1742.5 1838 L 1738 1841.5 Q 1739.1 1844.8 1736.5 1844 L 1727 1850.5 L 1725.5 1853 L 1723 1854.5 L 1721.5 1857 L 1716 1858 L 1714.5 1861 L 1709 1864.5 L 1707.5 1867 L 1704.5 1868 L 1702.5 1867 L 1700 1868 Q 1701.5 1871.8 1698.5 1871 L 1697 1874 Q 1700 1873 1699 1876 L 1688.5 1879 L 1685 1881.5 Q 1688.8 1883.2 1685.5 1885 L 1673.5 1890 Q 1671.7 1887.2 1670 1891.5 L 1668.5 1895 L 1658.5 1901 L 1648.5 1903 L 1647 1904.5 L 1645.5 1907 L 1636 1911 Q 1637.3 1914 1633.5 1913 L 1630.5 1915 L 1628.5 1915 L 1617.5 1919 L 1616.5 1918 L 1612.5 1920 L 1609.5 1922 Q 1608 1919.5 1606.5 1923 L 1603.5 1925 L 1576.5 1937 L 1572.5 1937 L 1542.5 1947 L 1529.5 1949 L 1524.5 1951 Q 1523.2 1948.7 1518.5 1950 L 1510.5 1954 L 1508.5 1954 L 1485.5 1962 L 1470.5 1963 L 1466.5 1962 L 1459.5 1966 Q 1458 1963.5 1456.5 1967 L 1442.5 1968 L 1441.5 1969 L 1439.5 1966 L 1437 1970 L 1434 1970 Q 1435.3 1967 1431.5 1968 L 1427.5 1970 L 1409.5 1974 L 1409.5 1973 L 1413 1970.5 L 1409.5 1970 L 1392.5 1975 L 1394 1972.5 Q 1394.9 1969.5 1390.5 1971 L 1385.5 1973 Q 1384.4 1970.3 1381 1971 Q 1382.3 1974 1378.5 1973 L 1373.5 1975 Q 1372 1972.5 1366.5 1974 L 1362.5 1975 L 1359.5 1974 L 1353.5 1977 Q 1351.8 1974.3 1345.5 1976 L 1340.5 1978 L 1337.5 1976 L 1335.5 1978 L 1326.5 1978 Q 1323.5 1972 1320.5 1978 L 1315.5 1979 L 1313.5 1979 Q 1309 1980 1308 1977.5 L 1308.5 1976 L 1294.5 1979 L 1295 1977.5 Q 1296.3 1972.9 1290.5 1975 L 1287.5 1976 L 1285.5 1975 L 1280.5 1977 L 1276.5 1975 L 1273.5 1976 L 1270.5 1975 L 1267.5 1976 Q 1266.3 1973.7 1261.5 1975 L 1259.5 1975 L 1253.5 1976 L 1252.5 1975 L 1241.5 1974 L 1239.5 1974 L 1235 1974 Q 1236.1 1971.3 1233.5 1972 Q 1232 1969.5 1230.5 1973 L 1225.5 1974 L 1224 1972.5 L 1225.5 1970 L 1216 1971 L 1214.5 1968 Q 1209.8 1969.3 1208.5 1967 L 1205.5 1968 Q 1204 1964.5 1202.5 1967 L 1196.5 1968 L 1193.5 1965 L 1192.5 1966 Q 1188.3 1966.8 1187.5 1964 L 1181.5 1964 L 1177.5 1961 L 1174 1962 Q 1176.1 1956.8 1171.5 1958 L 1168 1959 L 1166.5 1955 L 1165.5 1956 L 1159 1956 Q 1160.3 1952.7 1155.5 1954 L 1139.5 1945 L 1138.5 1946 L 1134.5 1942 L 1131.5 1943 L 1130 1939 L 1125.5 1939 Q 1126.5 1936 1121.5 1937 L 1111.5 1930 L 1110.5 1931 L 1106 1926.5 L 1104.5 1924 L 1101 1921.5 Q 1101.8 1919.3 1099.5 1920 Q 1098 1917.5 1096.5 1921 L 1095 1919.5 L 1093 1915 L 1090.5 1916 L 1088 1915 L 1087 1911 L 1081 1907.5 L 1072.5 1897 L 1071 1897 L 1071 1893 L 1069.5 1893 L 1064 1889 L 1057.5 1878 Q 1054.9 1877.2 1056 1880.5 L 1054 1879.5 L 1051 1869.5 L 1048.5 1866 Q 1046.8 1869.8 1045 1866.5 L 1041 1859.5 L 1040 1852.5 L 1038.5 1851 Q 1034.5 1851.5 1034 1848.5 L 1028 1837.5 Q 1028.8 1830.2 1025.5 1827 L 1022 1826 L 1017 1817.5 L 1010 1795.5 L 1011 1792.5 L 1006 1788.5 L 988 1737.5 L 986 1724.5 Q 989.5 1723 987 1721.5 Q 987.7 1718.9 985 1720 L 985 1717.5 L 975 1689.5 L 974 1674.5 L 972 1669.5 L 974 1666.5 L 971 1662.5 L 971 1660.5 L 968 1650.5 L 969 1648.5 Q 966.7 1647.3 968 1642.5 L 971 1639.5 L 970 1638.5 L 968 1635.5 L 966 1621.5 L 967.5 1622 L 970 1620.5 L 966 1607.5 L 967.5 1608 Q 971.7 1609.3 970 1604.5 L 968 1594.5 L 970 1584.5 L 969 1580.5 Q 971.3 1579.3 970 1574.5 L 969 1571.5 L 971 1563.5 Q 968.5 1562 972 1560.5 L 972.5 1552 L 975 1553 L 974 1545 L 978 1543.5 L 976 1536.5 Q 980 1534.5 980 1528.5 L 979 1525.5 L 984 1512.5 L 983 1510.5 L 985 1507.5 L 984 1503 Q 987.7 1504.5 987 1501.5 L 986 1499.5 L 990 1498 Q 988.8 1493.4 991.5 1492 Q 994.1 1492.8 993 1489.5 Q 997.5 1485 998 1476.5 L 1000 1474.5 L 999 1472.5 L 1004 1462.5 L 1007 1459.5 L 1007 1456.5 L 1010.5 1453 L 1013 1451.5 L 1016.5 1442 L 1019 1440.5 Q 1015.5 1439 1018 1437.5 Q 1017.2 1434.9 1020.5 1436 Q 1023.3 1434.8 1021 1433.5 L 1022.5 1431 L 1025 1431 Q 1023.8 1428 1027.5 1429 L 1033.5 1418 Q 1036.5 1418.7 1035 1415 L 1037.5 1415 L 1040 1411 Q 1043.3 1412.3 1042 1407.5 L 1049 1404 L 1047 1400.5 L 1054 1397 L 1053 1393 Q 1056 1394 1055 1391 L 1057.5 1391 L 1063.5 1384 L 1066 1382.5 Q 1064.9 1379.2 1067.5 1380 L 1073 1376.5 Q 1072.3 1374.3 1074.5 1375 L 1078 1372.5 Q 1077.3 1370.3 1079.5 1371 L 1084 1367.5 Q 1083.1 1364.5 1087.5 1366 L 1089 1363 L 1096 1359.5 L 1093 1357.5 L 1107 1352 L 1105 1348 L 1123 1340.5 L 1124.5 1337 L 1134.5 1331 Q 1140.5 1331 1143.5 1328 L 1148.5 1328 L 1151 1325.5 Q 1150.3 1323.3 1152.5 1324 L 1166.5 1316 L 1208.5 1303 L 1210.5 1304 L 1224.5 1300 L 1227.5 1302 Q 1229.8 1299 1235 1300 L 1237 1294.5 L 1233 1292 Q 1231.8 1285.1 1226 1281.5 L 1226 1278.5 L 1218.5 1269 Q 1215.5 1269.9 1217 1265.5 L 1214.5 1261 Q 1212.3 1261.8 1213 1259.5 L 1209.5 1254 Q 1207.8 1257.8 1206 1254.5 Q 1205 1246 1200.5 1241 L 1198.5 1244 L 1193 1231 L 1189 1229.5 L 1174 1202 Q 1171 1203.3 1172 1199.5 L 1170 1196.5 L 1169 1188 L 1165 1185.5 L 1158 1174.5 L 1156 1164 L 1153 1162.5 L 1150 1153.5 L 1143.5 1144 Q 1140.9 1144.8 1142 1141.5 L 1135 1122.5 L 1134 1115.5 L 1122 1084.5 L 1119 1073.5 L 1119 1068.5 Q 1111 1054 1108 1034.5 L 1109 1033.5 L 1109 1025.5 L 1108 1021.5 L 1109 1018.5 L 1105 1011.5 L 1105 1009.5 L 1104 994.5 L 1105 992.5 Q 1102 990.5 1103 984.5 L 1104 982.5 Q 1101.7 981.3 1103 976.5 L 1104 973.5 Q 1100.5 972 1103 970.5 L 1103 962.5 L 1105 962 L 1105 959.5 Q 1102.4 956.6 1103 950.5 L 1104.5 951 Q 1107.8 952.1 1107 949.5 L 1105 941.5 L 1108 940.5 Q 1109.2 935.8 1107 934.5 L 1111 915.5 L 1110 913.5 L 1113 910.5 L 1112 909.5 Q 1111.3 905.3 1114 904.5 L 1114 897 Q 1118.5 898.8 1117 893.5 Q 1114.8 892.3 1117.5 891 L 1120 889.5 L 1120 886.5 L 1125 878.5 L 1126 870.5 L 1128 868.5 L 1130 861.5 Q 1127.8 860.3 1130.5 859 L 1133 857.5 Q 1132.2 854.9 1135.5 856 L 1142 845.5 L 1142 841 L 1146 838.5 Q 1142.5 837 1145 835.5 Q 1144.3 833.3 1146.5 834 Q 1149.3 832.8 1147 831.5 L 1148.5 829 L 1152 826.5 Q 1151.3 824.3 1153.5 825 L 1158 822 L 1158 819.5 Q 1162.8 818.1 1162 813 L 1164.5 813 L 1169 808.5 Q 1167.8 804.8 1171.5 806 L 1173 803 L 1177 801.5 L 1176 798.5 L 1185 792.5 L 1184 790.5 L 1193.5 782 L 1197 781 L 1198.5 778 L 1203.5 777 L 1212 771 Q 1210.9 768.3 1213.5 769 L 1219.5 766 L 1223.5 766 L 1227.5 762 L 1237 757.5 Q 1236.3 755.3 1238.5 756 L 1241.5 754 L 1273.5 744 L 1274.5 745 L 1286.5 746 L 1289.5 743 Q 1294.1 743.6 1295.5 741 L 1300.5 741 L 1305.5 742 L 1307.5 744 L 1315.5 740 Q 1317.3 742.8 1323.5 741 L 1327.5 743 Q 1328.5 740 1333.5 741 L 1335 745 L 1345 743 L 1344 745.5 L 1347.5 747 L 1349.5 747 L 1359.5 748 L 1365.5 752 L 1373.5 752 L 1375.5 752 Q 1378.1 751.3 1377 754 L 1381.5 754 L 1383 757 Q 1388.2 754.9 1387 759.5 Q 1388.2 762 1392 761 Q 1390.9 763.7 1393.5 763 L 1398 764 L 1400.5 768 L 1402.5 768 L 1407.5 772 Q 1409.3 769.3 1411 773.5 L 1412 777 L 1415.5 775 L 1418.5 780 Q 1421.1 779.3 1420 782 L 1422.5 782 L 1429 787 L 1432.5 793 L 1436 794 L 1438 799 L 1441 800.5 L 1442 805 Q 1444.7 803.9 1444 806.5 L 1448 808 L 1448.5 806 L 1455 823 L 1458 821.5 L 1461 816.5 L 1461 813.5 L 1467.5 805 L 1471 802.5 L 1471.5 801 L 1473.5 801 Q 1475.8 801.8 1475 799.5 L 1481.5 791 Q 1484.1 791.8 1483 788.5 Q 1480.3 786.8 1484.5 785 L 1488 783.5 Q 1488.8 781.3 1486.5 782 L 1487.5 780 L 1494 778 Q 1492.7 774.7 1497.5 776 L 1504.5 767 L 1507.5 766 Q 1508.8 768.3 1510 765.5 L 1511.5 763 L 1517 761 L 1518.5 758 L 1534.5 753 L 1537.5 754 L 1540.5 749 L 1574.5 738 Q 1575.8 741 1580 740 Q 1578.9 737.3 1581.5 738 L 1590.5 734 L 1596.5 733 L 1606.5 735 L 1612.5 732 Z " /><path fill="rgb(40,40,40)" stroke="rgb(40,40,40)" stroke-width="1" opacity="0.1843137254901961" d="M 1601.5 777 Q 1603.2 779.8 1608.5 779 L 1609.5 778 Q 1617 779.5 1620.5 777 L 1623.5 779 L 1625.5 778 Q 1627 780.5 1632.5 779 L 1637.5 782 L 1643.5 782 L 1644.5 781 L 1647.5 784 L 1651.5 784 L 1652 786 L 1654.5 786 L 1656.5 786 L 1659.5 786 L 1663.5 789 L 1666.5 789 L 1669.5 792 L 1672.5 792 L 1682.5 797 L 1691 803.5 L 1693.5 807 L 1697 808.5 Q 1696.3 810.8 1698.5 810 L 1706 814 L 1711.5 821 L 1715 823.5 L 1717.5 828 L 1723 832.5 L 1736 854 Q 1738.7 852.9 1738 855.5 L 1742 860.5 L 1745 870.5 L 1752 883.5 L 1758 901.5 L 1761 906.5 Q 1758.3 908.3 1760 914.5 L 1766 937.5 L 1765 938.5 L 1765 947.5 L 1767 954.5 L 1766 958.5 L 1767 960.5 L 1766 963.5 L 1766 965.5 L 1768 972.5 Q 1764.3 974.3 1766 981.5 L 1767 984.5 L 1764 995.5 L 1765 999.5 L 1762 1003.5 L 1762 1009.5 L 1760 1011.5 L 1760 1018.5 Q 1757 1020.5 1758 1026.5 L 1755 1030.5 L 1753 1039.5 L 1750 1043.5 Q 1752.5 1045 1749 1046.5 L 1747 1054.5 L 1742 1063.5 L 1742 1067 Q 1739.3 1065.9 1740 1068.5 L 1732.5 1084 Q 1729.9 1083.2 1731 1086.5 L 1722 1098.5 L 1721 1102 Q 1718.3 1100.9 1719 1103.5 L 1710.5 1115 Q 1708.3 1114.3 1709 1116.5 L 1708 1120 L 1705 1121.5 L 1693.5 1138 L 1689 1140 Q 1690 1143.8 1687.5 1145 L 1681 1148.5 Q 1681.8 1152.3 1679.5 1153 L 1674 1155 L 1669.5 1161 Q 1667.3 1160.3 1668 1162.5 L 1664 1164.5 Q 1664.5 1168.5 1661.5 1169 Q 1649.1 1176.1 1640 1186.5 L 1638.5 1189 L 1632.5 1191 L 1627 1195 L 1625.5 1198 L 1617.5 1201 L 1610.5 1208 Q 1603.9 1208.9 1601 1213.5 L 1599.5 1216 L 1585 1224 L 1581.5 1229 Q 1569.1 1232.1 1561 1239.5 L 1559.5 1242 L 1539.5 1249 L 1528.5 1257 L 1514 1263 L 1513 1267 L 1506.5 1269 Q 1503.2 1267.3 1504 1261.5 L 1509 1254.5 L 1509 1251.5 L 1513 1247.5 L 1513 1244 L 1516 1242.5 L 1515 1240.5 Q 1519.3 1238.9 1518 1233 L 1521 1231.5 Q 1519.1 1226.1 1522.5 1227 L 1528 1218.5 L 1534.5 1212 L 1537 1212 L 1537 1208 L 1538.5 1208 L 1544 1203.5 Q 1541.3 1201.8 1545.5 1200 Q 1550.3 1200.8 1551 1197.5 Q 1550.3 1193.8 1552.5 1193 L 1555 1191.5 L 1562.5 1183 Q 1566.3 1184.3 1565 1180.5 L 1565 1178.5 Q 1565.8 1174.8 1563.5 1174 L 1550.5 1176 Q 1542.7 1182.2 1531.5 1185 L 1526 1189.5 L 1524.5 1192 L 1519.5 1193 L 1511 1201.5 Q 1511.8 1203.8 1509.5 1203 Q 1505.1 1205.4 1505 1211 L 1501 1212.5 Q 1501.5 1216.5 1498.5 1217 L 1495 1218 L 1491 1228 Q 1488.3 1226.9 1489 1229.5 L 1485 1237 Q 1482.3 1235.9 1483 1238.5 L 1482 1241 L 1479 1241 L 1479 1249.5 L 1477 1251.5 L 1476 1257 Q 1473.3 1255.9 1474 1258.5 Q 1473.3 1262.8 1467.5 1262 L 1463.5 1261 L 1458.5 1262 L 1451 1256.5 L 1459 1237 Q 1463.9 1238.8 1462 1232.5 L 1478 1202.5 L 1478 1200.5 L 1483 1190.5 L 1484 1184.5 L 1486 1182.5 L 1486 1178.5 L 1489 1172 Q 1492.5 1173.1 1491 1165.5 Q 1495.1 1163.2 1494 1157 Q 1497.7 1158.3 1496 1152.5 L 1498 1148.5 L 1498 1146.5 L 1499 1137.5 L 1502 1134.5 L 1502 1130.5 L 1505 1123.5 L 1505 1121.5 Q 1508 1119.5 1507 1113.5 L 1507 1111.5 L 1509 1105.5 L 1508 1102.5 L 1510 1099.5 L 1511 1088.5 L 1511 1086.5 Q 1510 1081.5 1513 1080.5 L 1511 1077.5 L 1515 1070.5 L 1513 1066.5 L 1513 1064.5 L 1516 1055.5 Q 1513.5 1054 1515 1048.5 Q 1517.5 1047 1516 1041.5 Q 1513.3 1039.8 1515 1033.5 Q 1518.5 1032 1516 1030.5 L 1516 1017.5 L 1515 1015.5 L 1516 1014.5 L 1516 1004.5 L 1514 998.5 L 1515 997.5 L 1516 984.5 Q 1510.8 976.2 1513 960.5 L 1503 930.5 Q 1505.2 929.3 1504 924.5 L 1499 909.5 L 1496 904.5 L 1495 898.5 L 1491 893.5 L 1486 875.5 L 1480 860.5 L 1480 854 L 1487 850.5 L 1491.5 845 L 1497 842 L 1497 838 L 1498.5 838 L 1502.5 832 L 1505 830.5 L 1506 827.5 Q 1503.3 825.8 1507.5 824 Q 1509.3 826.8 1511 822.5 Q 1510.5 818.5 1513.5 818 L 1518 815.5 L 1521.5 810 L 1529.5 806 L 1536 800.5 Q 1535.3 798.3 1537.5 799 L 1541.5 796 L 1554.5 792 L 1562.5 787 L 1574.5 783 L 1589.5 781 L 1601.5 777 Z M 1598 780 Q 1592 785 1583 786 L 1581 785 L 1562 790 L 1556 795 L 1544 799 Q 1539 797 1540 801 L 1535 805 L 1536 807 L 1534 809 L 1526 811 L 1523 814 L 1525 815 L 1518 821 Q 1515 820 1516 823 L 1513 824 L 1512 828 L 1510 829 L 1508 832 L 1505 833 L 1504 836 Q 1505 838 1502 837 Q 1503 842 1498 844 L 1498 847 L 1490 852 L 1491 855 L 1486 857 Q 1483 856 1484 859 L 1484 861 L 1489 878 L 1492 881 L 1506 920 L 1511 940 L 1509 943 L 1512 947 L 1514 956 L 1517 962 L 1517 974 L 1518 975 L 1516 978 L 1519 983 L 1520 989 L 1520 991 L 1521 1002 L 1519 1002 L 1522 1012 Q 1523 1015 1521 1016 L 1518 1015 L 1518 1020 L 1522 1032 L 1521 1031 L 1517 1038 L 1520 1043 L 1519 1053 L 1519 1055 L 1519 1068 L 1520 1069 L 1518 1071 Q 1519 1076 1516 1078 L 1517 1081 L 1517 1088 L 1516 1088 L 1514 1088 L 1515 1098 L 1514 1097 L 1512 1099 L 1512 1104 L 1510 1110 L 1511 1113 L 1507 1134 L 1502 1141 L 1503 1143 Q 1505 1149 1500 1147 L 1501 1153 L 1496 1163 L 1492 1183 L 1490 1184 L 1490 1186 L 1489 1188 L 1486 1189 L 1486 1193 L 1483 1197 L 1479 1210 L 1479 1212 L 1479 1215 L 1476 1215 L 1476 1220 L 1475 1220 L 1473 1223 L 1473 1225 Q 1474 1228 1470 1226 L 1470 1231 L 1468 1231 Q 1465 1232 1466 1236 L 1463 1239 L 1461 1246 L 1461 1248 Q 1462 1250 1459 1249 Q 1460 1254 1456 1256 L 1460 1256 L 1462 1256 L 1466 1258 L 1470 1256 L 1472 1257 Q 1471 1253 1475 1252 L 1475 1243 L 1477 1239 L 1480 1237 L 1483 1234 Q 1482 1230 1485 1229 Q 1487 1230 1486 1227 L 1486 1225 Q 1485 1222 1489 1223 L 1489 1220 L 1494 1215 L 1496 1215 L 1500 1210 L 1500 1208 L 1505 1204 L 1507 1201 L 1513 1197 L 1511 1194 L 1522 1189 Q 1524 1190 1523 1187 L 1520 1186 Q 1524 1181 1533 1181 Q 1534 1177 1536 1180 L 1542 1178 L 1541 1176 L 1546 1172 L 1561 1167 L 1565 1167 L 1569 1174 L 1571 1181 L 1570 1184 Q 1569 1188 1563 1187 L 1562 1192 L 1556 1195 L 1553 1201 L 1547 1205 L 1544 1209 L 1540 1212 Q 1536 1213 1537 1218 L 1531 1222 L 1534 1224 Q 1532 1227 1527 1226 L 1517 1247 L 1514 1250 L 1514 1253 L 1511 1255 L 1512 1259 L 1516 1258 L 1520 1259 L 1521 1255 L 1533 1251 L 1534 1248 L 1548 1243 L 1557 1242 L 1558 1238 L 1561 1237 L 1559 1233 Q 1564 1230 1574 1229 L 1579 1226 Q 1581 1227 1580 1224 L 1578 1224 L 1586 1218 L 1590 1218 Q 1594 1216 1591 1215 L 1603 1207 L 1606 1207 L 1607 1204 L 1613 1202 L 1614 1200 L 1618 1197 Q 1623 1199 1622 1196 L 1628 1192 Q 1630 1193 1629 1191 Q 1630 1188 1634 1188 L 1636 1188 L 1638 1186 Q 1637 1183 1640 1184 L 1639 1181 L 1647 1177 L 1648 1174 L 1646 1174 L 1655 1168 L 1659 1168 L 1662 1160 L 1674 1152 L 1676 1152 L 1680 1147 L 1680 1144 Q 1686 1145 1687 1141 L 1686 1136 L 1689 1136 L 1693 1133 L 1689 1132 L 1694 1128 L 1697 1128 L 1698 1124 L 1703 1120 L 1711 1109 L 1711 1105 L 1715 1103 Q 1719 1104 1717 1100 L 1720 1098 L 1722 1096 L 1726 1083 L 1732 1075 Q 1731 1072 1734 1073 L 1734 1070 L 1738 1068 L 1741 1062 L 1740 1060 L 1741 1058 Q 1740 1055 1743 1056 L 1743 1050 L 1748 1042 L 1748 1039 L 1751 1036 L 1750 1033 Q 1749 1028 1754 1030 L 1753 1027 L 1756 1022 Q 1755 1016 1757 1015 L 1756 1013 L 1759 1005 L 1759 997 L 1760 996 Q 1762 989 1759 988 Q 1758 983 1761 984 L 1760 979 Q 1758 973 1764 975 L 1761 965 L 1762 961 L 1764 962 L 1763 956 L 1764 953 L 1761 946 L 1763 943 L 1762 940 Q 1761 935 1763 934 L 1757 919 L 1756 906 L 1753 900 L 1753 897 L 1746 884 L 1746 881 L 1740 866 L 1741 864 L 1740 863 Q 1736 861 1736 857 L 1734 855 Q 1730 854 1731 849 L 1726 842 L 1723 840 L 1723 842 Q 1719 839 1719 833 L 1717 830 L 1715 831 L 1711 829 Q 1712 824 1710 825 L 1708 825 L 1707 824 L 1701 821 L 1699 816 L 1692 810 L 1692 808 L 1688 808 L 1684 802 Q 1679 803 1680 801 Q 1679 798 1678 800 Q 1673 801 1673 797 L 1670 797 L 1668 794 L 1665 794 L 1659 789 L 1656 790 L 1653 789 L 1651 789 L 1647 786 L 1645 787 L 1637 785 L 1635 786 Q 1629 783 1620 784 L 1621 781 L 1617 781 L 1605 785 L 1607 782 L 1598 780 Z M 1508 1260 L 1507 1263 Q 1506 1266 1511 1264 L 1513 1261 L 1508 1260 Z " /><path fill="rgb(40,40,40)" stroke="rgb(40,40,40)" stroke-width="1" opacity="0.1843137254901961" d="M 1309.5 783 L 1312.5 785 L 1329.5 786 L 1337.5 788 Q 1339 785.5 1340.5 789 L 1344.5 789 L 1356.5 795 L 1360.5 795 L 1367.5 799 L 1374.5 800 L 1385 807.5 Q 1384.2 810.1 1387.5 809 L 1393 813 Q 1391.9 815.7 1394.5 815 L 1397 819 Q 1400.8 818 1402 820.5 L 1404 826 Q 1408.7 826.5 1411 830.5 L 1412.5 834 L 1419 838.5 Q 1418.3 843.3 1421.5 844 Q 1425.5 843.5 1426 846.5 L 1436 863 Q 1439 861.8 1438 865.5 L 1439 870.5 L 1452 896 Q 1454.7 894.9 1454 897.5 L 1471 950.5 L 1470.5 953 L 1468.5 954 L 1468 950 Q 1470.7 951.1 1470 948.5 L 1465 940.5 L 1453 903.5 L 1454 901.5 L 1450 897.5 Q 1449.4 891.6 1445.5 889 L 1445 891 Q 1442 892.3 1443 888.5 L 1435 865.5 L 1432.5 863 L 1432 865 L 1429 863.5 L 1424.5 854 L 1423.5 856 L 1416 844.5 L 1417 843.5 L 1407.5 834 Q 1405.3 834.8 1406 832.5 L 1401.5 827 Q 1399.3 827.8 1400 825.5 L 1397 820 Q 1391 821 1389.5 816 Q 1387.8 819.8 1386 816.5 L 1384 811 L 1380.5 812 L 1377.5 808 L 1375.5 809 L 1373 808 Q 1374.5 804.3 1371.5 805 L 1369.5 806 L 1366.5 802 L 1363 803 L 1361.5 799 Q 1357.3 799.8 1356.5 797 L 1351.5 797 L 1345.5 794 L 1343.5 794 Q 1340.3 791.7 1333.5 793 L 1329.5 791 L 1326.5 792 L 1324 790.5 L 1324.5 789 L 1319.5 789 L 1312.5 791 L 1313 789.5 Q 1314.3 785.3 1309.5 787 Q 1308 789.5 1306.5 786 Q 1304.6 789.6 1298.5 789 Q 1297.3 786.8 1292.5 788 L 1285.5 790 L 1282.5 789 L 1280.5 791 L 1256.5 799 L 1251 799 L 1249.5 802 L 1242 806.5 Q 1242.8 808.8 1240.5 808 Q 1237.3 811 1231 810 L 1227 815.5 L 1229 819 L 1217 823.5 L 1218 826.5 L 1214 829.5 L 1213 833 Q 1210.3 831.9 1211 834.5 L 1206 838.5 Q 1206.8 840.8 1204.5 840 Q 1202 841.2 1203 845 L 1196 848.5 L 1194.5 851 L 1192 852.5 L 1190 855.5 L 1191 858.5 L 1187 861.5 Q 1191.3 863.8 1186.5 866 L 1184 867.5 L 1185 869.5 L 1182 871 L 1182 876 L 1180.5 876 L 1178 877 L 1178 881 Q 1174.3 879.5 1175 882.5 L 1172 887.5 L 1172 893 Q 1168.7 891.7 1170 896.5 L 1170 898.5 Q 1170.7 901.1 1168 900 L 1168 904.5 L 1168 906.5 L 1165 909.5 L 1162 915.5 L 1163 919.5 Q 1161 917.8 1159 921.5 L 1159 923.5 L 1157 932.5 L 1157 934.5 Q 1158.2 939.2 1156 940.5 L 1157 942.5 L 1155 945.5 L 1156 948.5 L 1154 956.5 L 1155 958.5 L 1154 961.5 L 1155 965 Q 1150.9 963.3 1152 967.5 L 1153 969.5 L 1153 971.5 L 1154 974.5 L 1150 976 L 1154 990.5 Q 1150.2 991.2 1151 996.5 L 1152 1001.5 L 1151 1004.5 L 1154 1008.5 L 1154 1010.5 L 1155 1015.5 L 1154 1020.5 L 1156 1028.5 L 1155 1030.5 L 1157 1032.5 Q 1157.5 1040 1161 1044.5 L 1164 1055.5 L 1164 1062.5 L 1168 1075.5 L 1176 1091.5 L 1184 1115.5 L 1184 1120.5 L 1185.5 1122 L 1188 1123.5 Q 1190.8 1133.7 1197 1140.5 L 1200 1151.5 Q 1197.8 1152.8 1200.5 1154 L 1203 1155.5 L 1205 1161 L 1210 1162 Q 1211.4 1173.4 1217.5 1181 L 1218.5 1176 L 1227.5 1196 L 1228.5 1194 L 1236.5 1208 L 1239 1209.5 Q 1240.3 1217.3 1246 1220.5 Q 1245.2 1226.3 1248.5 1228 Q 1250.8 1227.3 1250 1229.5 L 1262.5 1248 Q 1264.8 1247.3 1264 1249.5 L 1267 1255.5 L 1267 1257.5 Q 1266.3 1259.8 1268.5 1259 L 1270 1262 Q 1273.7 1263.5 1273 1260.5 L 1276 1262.5 L 1278 1271.5 L 1280.5 1275 L 1283.5 1274 L 1287 1278.5 L 1288 1284 L 1293.5 1286 L 1313 1278.5 L 1315.5 1275 L 1327.5 1271 L 1333 1271 L 1332 1267.5 L 1333 1264.5 L 1327 1248.5 L 1327 1246.5 L 1328 1242.5 L 1325 1231.5 L 1322.5 1229 Q 1320.3 1229.8 1321 1227.5 L 1315 1211.5 L 1315 1207.5 L 1308.5 1199 Q 1306.8 1202.8 1305 1199.5 Q 1303.8 1191.8 1299.5 1187 L 1298.5 1190 L 1296 1187.5 L 1294 1178 Q 1298.5 1179.8 1297 1174.5 L 1296 1168 L 1302.5 1167 L 1305 1164.5 Q 1303.9 1161.2 1306.5 1162 L 1313.5 1159 L 1327 1168 L 1331 1178.5 L 1330 1180.5 L 1334 1184.5 L 1337.5 1192 L 1338.5 1187 L 1342 1192.5 L 1358 1241.5 L 1359 1248.5 L 1357.5 1248 L 1355 1249.5 L 1357 1256.5 L 1356 1260.5 L 1361.5 1265 L 1364.5 1260 Q 1367.5 1260.9 1366 1256.5 Q 1363.8 1255.3 1365 1250.5 L 1365 1248.5 L 1364 1243.5 L 1366 1239.5 L 1365 1237.5 L 1366 1234.5 L 1365 1233.5 L 1365 1223.5 L 1367 1219.5 L 1366 1216.5 L 1367 1214 L 1370 1212.5 L 1368 1203.5 L 1371 1200.5 L 1372 1195.5 Q 1368.5 1194 1371 1192.5 L 1374 1180.5 Q 1371.8 1179.2 1373 1174.5 L 1376 1171.5 L 1376 1169.5 L 1377 1164.5 L 1376 1162.5 L 1377 1159 L 1380 1159 L 1380 1155 L 1381.5 1155 L 1385 1150.5 L 1385 1146.5 L 1384 1137.5 L 1391.5 1126 L 1393.5 1126 L 1410.5 1121 L 1413 1122 L 1416 1129.5 L 1416 1131.5 Q 1415.4 1137.1 1419 1138.5 L 1419 1144.5 L 1416 1146 L 1416 1151 L 1413.5 1151 L 1405 1167.5 L 1405 1174.5 Q 1402 1178 1402.5 1185 L 1401 1184.5 Q 1402 1189 1399.5 1190 L 1397 1191.5 L 1399 1199 L 1395 1200.5 L 1394 1204.5 L 1396 1207.5 L 1394 1210.5 L 1395 1212.5 L 1394 1215.5 L 1392 1228.5 L 1393 1231.5 L 1390 1239.5 L 1392 1247.5 L 1388 1249.5 L 1390 1258.5 L 1391.5 1260 L 1415 1252 L 1414 1247 L 1418 1245.5 L 1417 1242.5 Q 1421 1241.1 1420 1236 L 1425 1232.5 L 1427 1226 Q 1429.7 1227.1 1429 1224.5 L 1430 1222.5 L 1428.5 1220 Q 1432.3 1220.8 1433 1218.5 L 1434 1216.5 L 1433 1214 Q 1436.3 1215.3 1435 1210.5 L 1434 1209.5 L 1437 1206.5 Q 1436.4 1201.9 1439 1200.5 Q 1436.5 1199 1440 1197.5 L 1440 1194.5 Q 1443.6 1192.6 1443 1188 L 1446 1186.5 L 1444 1182.5 L 1448 1181 L 1447 1176.5 L 1450 1175 L 1450 1168.5 L 1453 1163.5 Q 1450.5 1162 1454 1160.5 L 1457 1152.5 L 1457 1150.5 L 1456 1144 Q 1459.3 1145.3 1458 1140.5 L 1459 1138 Q 1462.7 1139.5 1462 1136.5 L 1460 1129.5 L 1461.5 1130 L 1464 1128.5 L 1465 1122.5 L 1465 1120.5 L 1466 1117.5 L 1464 1112.5 L 1467 1109.5 L 1468 1102.5 L 1467 1100.5 L 1471 1092.5 Q 1467.5 1091 1470 1089.5 L 1469 1084.5 L 1470.5 1085 Q 1473.5 1085.9 1472 1081.5 L 1470 1074 L 1472.5 1075 L 1475 1068.5 L 1473 1064.5 Q 1475.6 1063.1 1475 1058.5 L 1475 1056.5 L 1473 1048.5 L 1475 1045.5 L 1474 1043.5 L 1475 1038.5 L 1473 1033.5 Q 1475.5 1032 1474 1026.5 L 1473 1024.5 Q 1476.5 1023 1474 1021.5 Q 1471.7 1018.3 1473 1011.5 Q 1476 1010.5 1475 1005.5 L 1471 994.5 L 1471 989.5 L 1474 990.5 L 1474 984.5 L 1467 962.5 L 1470 963.5 Q 1468.5 955.9 1472 957 Q 1474.3 962.6 1473 973.5 L 1478 997.5 Q 1475.8 998.7 1477 1003.5 L 1479 1012.5 L 1478 1014.5 L 1479 1016.5 Q 1476.3 1017.2 1477 1021.5 Q 1480.2 1023.8 1479 1030.5 Q 1476.2 1032.2 1477 1037.5 L 1479 1044.5 Q 1475.3 1046.3 1477 1053.5 L 1478 1058.5 L 1476 1065.5 Q 1478.5 1067 1477 1072.5 L 1475 1077.5 L 1474 1095.5 Q 1469.7 1097.7 1471 1105.5 L 1472 1107.5 Q 1468 1108.5 1469 1114.5 L 1470 1117.5 L 1468 1119.5 L 1468 1127.5 L 1466 1129.5 L 1464 1144.5 L 1459 1159 L 1457 1159 L 1457 1165 L 1455 1165.5 L 1455 1170.5 L 1454 1173.5 L 1453 1178.5 L 1446.5 1192 Q 1443.5 1191.1 1445 1195.5 L 1444 1198.5 L 1445 1200.5 L 1440 1208.5 L 1440 1212 L 1437 1213.5 L 1437 1216.5 L 1432 1227.5 L 1429 1230.5 L 1429 1233.5 L 1425 1237.5 L 1423 1243.5 L 1412.5 1259 L 1410.5 1260 L 1396.5 1260 L 1391.5 1262 L 1387 1261 Q 1387.8 1256.5 1385 1254.5 L 1385 1247.5 L 1386 1246.5 L 1387 1233.5 L 1389 1228.5 L 1388 1223.5 Q 1390.8 1220.8 1390 1214.5 L 1392 1212.5 L 1392 1200.5 L 1394 1196.5 L 1393 1194.5 L 1398 1181.5 L 1398 1179.5 Q 1397.1 1172.1 1402 1170.5 L 1402 1165.5 L 1405 1162.5 L 1408 1156.5 L 1408 1153.5 L 1410 1151.5 L 1410 1146.5 L 1413 1142.5 L 1414 1134.5 L 1409.5 1129 Q 1407.3 1129.8 1408 1127.5 Q 1407 1125 1402.5 1126 Q 1395.9 1126.9 1393 1131.5 Q 1389.8 1135.8 1390 1143.5 L 1387 1146.5 L 1387 1152.5 L 1382 1160.5 L 1382 1164.5 L 1378 1173.5 L 1378 1178.5 L 1379 1181 L 1376 1182.5 Q 1377.8 1189.7 1374 1191.5 L 1373 1212.5 Q 1368.5 1215 1370 1223.5 L 1370 1225.5 L 1371 1228.5 Q 1368 1230.5 1369 1236.5 L 1370 1239.5 L 1367 1245.5 Q 1370 1249.5 1369 1257.5 L 1366.5 1264 Q 1364.6 1267.6 1358.5 1267 L 1354 1260.5 L 1354 1249.5 L 1349 1231.5 L 1349 1225.5 L 1333 1187 L 1330 1185.5 L 1325 1171.5 L 1320.5 1167 L 1318 1167 Q 1319.3 1164 1315.5 1165 Q 1306.6 1166.6 1301 1171.5 L 1301 1180.5 L 1308 1191.5 L 1309 1196.5 L 1313.5 1202 Q 1316.1 1201.2 1315 1204.5 L 1323 1222.5 L 1323 1225.5 L 1328 1231.5 L 1331 1250.5 L 1336 1267.5 Q 1333.8 1268.8 1335 1273.5 L 1333.5 1275 Q 1320.4 1277.9 1310.5 1284 L 1296.5 1287 L 1293.5 1289 L 1288.5 1289 L 1283.5 1282 Q 1281.3 1282.8 1282 1280.5 L 1275 1270.5 L 1266 1261.5 L 1262 1251.5 L 1247.5 1232 Q 1245.3 1232.8 1246 1230.5 L 1242 1221 L 1238 1220 L 1234 1213.5 L 1233 1208.5 L 1230.5 1206 L 1228 1204.5 L 1223 1197.5 L 1221 1190.5 L 1211 1176.5 L 1202 1158 Q 1198.3 1159.5 1199 1156.5 L 1196 1146.5 L 1182 1121.5 L 1181 1115.5 L 1174 1097.5 L 1167 1085.5 L 1160 1063.5 L 1159 1051.5 L 1152 1029.5 L 1151.5 1023 L 1150 1023.5 L 1151 1010.5 Q 1147.8 1006.2 1148 998.5 Q 1150.8 996.8 1149 990.5 L 1149 988.5 Q 1149.6 983.9 1147 982.5 L 1147 976.5 L 1149 970.5 L 1150 951.5 L 1152 944.5 L 1151 942.5 L 1154 935.5 L 1153 930 Q 1156 931.3 1155 927.5 Q 1157.2 926.3 1156 921.5 L 1158 919.5 L 1159 911.5 L 1163 904.5 L 1164 895.5 L 1165.5 894 Q 1168.9 894.9 1167 889.5 L 1170 888 L 1170 883 L 1171.5 883 Q 1173.8 882.3 1173 878.5 L 1176 875.5 L 1178 867.5 L 1186.5 856 Q 1188.8 856.8 1188 854.5 L 1192.5 848 L 1195 846.5 L 1195 843.5 L 1199.5 839 L 1202 837.5 L 1203.5 835 L 1206 833.5 L 1209.5 828 L 1212 826.5 L 1212 824.5 L 1216.5 819 L 1218.5 820 L 1226 814 L 1227 810 L 1239.5 805 L 1243 801.5 L 1242.5 800 L 1285.5 786 L 1287.5 786 L 1296.5 785 L 1298.5 786 L 1309.5 783 Z " /><path fill="rgb(40,40,40)" stroke="rgb(40,40,40)" stroke-width="1" opacity="0.1843137254901961" d="M 1116.5 1076 Q 1122.8 1086.7 1125 1101.5 L 1123 1100.5 L 1116 1078.5 L 1116.5 1076 Z " /><path fill="rgb(0,0,0)" stroke="rgb(0,0,0)" stroke-width="1" opacity="0" d="M 0 0 L 2797 0 L 2797 2825 L 0 2825 L 0 0 Z M 1613 732 L 1607 735 L 1597 733 L 1591 734 L 1582 738 Q 1579 737 1580 740 Q 1576 741 1575 738 L 1541 749 L 1538 754 L 1535 753 L 1519 758 L 1517 761 L 1512 763 L 1510 766 Q 1509 768 1508 766 L 1505 767 L 1498 776 Q 1493 775 1494 778 L 1488 780 L 1487 782 Q 1489 781 1488 784 L 1485 785 Q 1480 787 1483 789 Q 1484 792 1482 791 L 1475 800 Q 1476 802 1474 801 L 1472 801 L 1471 803 L 1468 805 L 1461 814 L 1461 817 L 1458 822 L 1456 823 L 1449 806 L 1448 808 L 1444 807 Q 1445 804 1442 805 L 1441 801 L 1438 799 L 1436 794 L 1433 793 L 1429 787 L 1423 782 L 1420 782 Q 1421 779 1419 780 L 1416 775 L 1413 777 L 1411 774 Q 1409 769 1408 772 L 1403 768 L 1401 768 L 1398 764 L 1394 763 Q 1391 764 1392 761 Q 1388 762 1387 760 Q 1388 755 1383 757 L 1382 754 L 1377 754 Q 1378 751 1376 752 L 1374 752 L 1366 752 L 1360 748 L 1350 747 L 1348 747 L 1344 746 L 1345 743 L 1337 745 L 1335 745 L 1335 741 Q 1329 740 1328 743 L 1324 741 Q 1317 743 1316 740 L 1308 744 L 1306 742 L 1301 741 L 1296 741 Q 1294 744 1290 743 L 1287 746 L 1275 745 L 1274 744 L 1242 754 L 1239 756 Q 1236 755 1237 758 L 1228 762 L 1224 766 L 1220 766 L 1214 769 Q 1211 768 1212 771 L 1204 777 L 1199 778 L 1197 781 L 1194 782 L 1184 791 L 1185 793 L 1176 799 L 1177 802 L 1173 803 L 1172 806 Q 1168 805 1169 809 L 1165 813 L 1162 813 L 1162 816 L 1154 825 Q 1151 824 1152 827 L 1149 829 L 1147 832 Q 1149 833 1147 834 Q 1144 833 1145 836 L 1145 838 Q 1146 841 1144 840 Q 1141 841 1142 846 L 1136 856 Q 1132 855 1133 858 L 1131 859 Q 1128 860 1130 862 L 1128 869 L 1126 871 L 1125 879 L 1120 887 L 1120 890 L 1118 891 Q 1115 892 1117 894 Q 1119 899 1114 897 L 1114 905 L 1112 907 L 1113 911 L 1110 914 L 1110 922 L 1108 929 L 1108 934 L 1108 936 Q 1110 943 1105 941 L 1107 950 Q 1108 952 1105 951 L 1103 951 Q 1102 957 1105 960 L 1105 962 L 1103 963 L 1103 971 Q 1100 972 1104 974 L 1103 983 L 1103 985 Q 1102 991 1105 993 L 1104 995 L 1105 1010 L 1105 1012 L 1109 1019 L 1108 1022 L 1109 1026 L 1109 1034 L 1108 1035 L 1108 1040 L 1117 1067 L 1119 1069 L 1119 1074 L 1124 1092 L 1134 1116 L 1135 1123 L 1142 1142 Q 1141 1145 1144 1144 L 1150 1154 L 1153 1163 L 1156 1164 L 1158 1175 L 1165 1186 L 1169 1188 L 1170 1197 L 1172 1200 Q 1171 1203 1174 1202 L 1189 1230 L 1193 1231 L 1199 1244 L 1201 1241 L 1208 1256 L 1211 1255 L 1213 1260 Q 1212 1262 1215 1261 L 1217 1266 Q 1215 1270 1219 1269 L 1226 1279 L 1226 1282 Q 1232 1285 1233 1292 L 1237 1295 L 1235 1300 Q 1230 1299 1228 1302 L 1225 1300 L 1211 1304 L 1209 1303 L 1167 1316 L 1153 1324 Q 1150 1323 1151 1326 L 1149 1328 L 1144 1328 Q 1141 1331 1135 1331 L 1125 1337 L 1123 1341 L 1105 1348 L 1107 1352 L 1093 1358 L 1096 1360 L 1089 1363 L 1088 1366 Q 1083 1364 1084 1368 L 1080 1371 Q 1077 1370 1078 1373 L 1075 1375 Q 1072 1374 1073 1377 L 1068 1380 Q 1065 1379 1066 1383 L 1064 1384 L 1058 1391 L 1055 1391 Q 1056 1394 1053 1393 L 1054 1397 L 1047 1401 L 1049 1404 L 1042 1408 Q 1043 1412 1040 1411 L 1038 1415 L 1035 1415 Q 1036 1419 1034 1418 L 1029 1428 L 1023 1431 L 1021 1434 Q 1023 1435 1021 1436 Q 1017 1435 1018 1438 Q 1016 1439 1019 1441 L 1017 1442 L 1013 1452 L 1011 1453 L 1007 1457 L 1007 1460 L 1004 1463 L 999 1473 L 1000 1475 L 998 1477 Q 997 1485 993 1490 Q 994 1493 992 1492 Q 989 1493 990 1498 L 986 1500 L 987 1502 Q 988 1505 984 1503 L 985 1508 L 983 1511 L 984 1513 L 979 1526 L 980 1529 Q 980 1535 976 1537 L 978 1544 L 974 1545 L 975 1553 L 973 1552 L 972 1561 Q 968 1562 971 1564 L 969 1572 L 970 1575 Q 971 1579 969 1581 L 970 1585 L 968 1595 L 970 1605 Q 972 1609 968 1608 L 966 1608 L 970 1621 L 968 1622 L 966 1622 L 968 1636 L 970 1639 L 971 1640 L 968 1643 Q 967 1647 969 1649 L 968 1651 L 971 1661 L 971 1663 L 974 1667 L 972 1670 L 974 1675 L 975 1690 L 985 1718 L 985 1720 Q 988 1719 987 1722 Q 990 1723 986 1725 L 988 1738 L 1006 1789 L 1011 1793 L 1010 1796 L 1017 1818 L 1022 1826 L 1026 1827 Q 1029 1830 1028 1838 L 1034 1849 Q 1034 1852 1039 1851 L 1040 1853 L 1041 1860 L 1045 1867 Q 1047 1870 1049 1866 L 1056 1881 L 1058 1878 L 1064 1889 L 1070 1893 L 1071 1893 L 1071 1897 L 1073 1897 L 1081 1908 L 1087 1911 L 1088 1915 L 1091 1916 L 1093 1915 L 1095 1920 L 1097 1921 Q 1098 1917 1100 1920 Q 1102 1919 1101 1922 L 1105 1924 L 1106 1927 L 1111 1931 L 1112 1930 L 1122 1937 Q 1127 1936 1126 1939 L 1130 1939 L 1130 1942 L 1134 1943 L 1135 1942 L 1139 1946 L 1140 1945 L 1156 1954 Q 1160 1953 1159 1956 L 1166 1956 L 1167 1955 L 1168 1959 L 1172 1958 Q 1176 1957 1174 1962 L 1178 1961 L 1182 1964 L 1188 1964 Q 1189 1967 1195 1966 L 1197 1968 L 1201 1967 L 1206 1968 L 1209 1967 Q 1210 1969 1215 1968 L 1216 1971 L 1226 1970 L 1224 1973 L 1226 1974 L 1231 1973 Q 1232 1969 1234 1972 Q 1236 1971 1235 1974 L 1240 1974 L 1242 1974 L 1253 1975 L 1254 1976 L 1260 1975 L 1262 1975 Q 1266 1974 1268 1976 L 1271 1975 L 1281 1977 L 1286 1975 L 1288 1976 L 1291 1975 Q 1296 1973 1295 1978 L 1295 1979 L 1309 1976 L 1308 1978 Q 1309 1980 1314 1979 L 1316 1979 L 1321 1978 Q 1324 1972 1327 1978 L 1336 1978 L 1338 1976 L 1341 1978 L 1347 1976 Q 1352 1975 1354 1977 L 1360 1974 L 1363 1975 L 1368 1974 Q 1372 1973 1374 1975 L 1379 1973 Q 1382 1974 1381 1971 Q 1384 1970 1386 1973 L 1391 1971 Q 1395 1969 1394 1973 L 1393 1975 L 1410 1970 L 1413 1971 L 1410 1973 L 1410 1974 L 1428 1970 L 1432 1968 Q 1435 1967 1434 1970 L 1444 1968 L 1457 1967 Q 1458 1963 1460 1966 L 1467 1962 L 1471 1963 L 1486 1962 L 1509 1954 L 1511 1954 L 1519 1950 Q 1523 1949 1525 1951 L 1543 1947 L 1573 1937 L 1577 1937 L 1604 1925 L 1607 1923 Q 1608 1919 1610 1922 L 1613 1920 L 1617 1918 L 1618 1919 L 1629 1915 L 1631 1915 L 1634 1913 Q 1637 1914 1636 1911 L 1646 1907 L 1647 1905 L 1649 1903 L 1659 1901 L 1669 1895 L 1670 1892 Q 1672 1887 1674 1890 L 1687 1885 L 1685 1882 L 1689 1879 L 1699 1876 Q 1700 1873 1697 1874 L 1699 1871 Q 1702 1872 1700 1868 L 1703 1867 L 1705 1868 L 1708 1867 L 1709 1865 L 1715 1861 L 1716 1858 L 1722 1857 L 1723 1855 L 1726 1853 L 1727 1851 L 1737 1844 Q 1739 1845 1738 1842 L 1743 1838 Q 1745 1839 1744 1836 L 1742 1836 Q 1745 1831 1750 1832 L 1749 1828 L 1754 1825 L 1756 1822 L 1763 1817 Q 1762 1813 1765 1811 L 1768 1809 L 1769 1807 L 1772 1805 L 1773 1803 Q 1772 1800 1775 1801 Q 1778 1800 1777 1795 L 1783 1793 Q 1786 1791 1782 1790 L 1784 1787 L 1785 1787 L 1785 1782 L 1787 1782 L 1791 1774 L 1794 1772 L 1795 1770 L 1798 1768 Q 1797 1763 1801 1762 L 1802 1755 L 1809 1742 L 1813 1739 Q 1812 1735 1815 1736 L 1818 1730 Q 1820 1731 1819 1725 L 1819 1723 L 1820 1720 L 1820 1718 L 1822 1713 L 1822 1711 Q 1821 1708 1824 1709 Q 1827 1708 1825 1702 L 1828 1699 L 1827 1695 L 1831 1693 L 1829 1684 L 1832 1683 Q 1830 1676 1834 1677 L 1833 1675 L 1835 1667 Q 1837 1661 1834 1660 Q 1837 1658 1835 1653 L 1835 1651 L 1837 1646 L 1836 1643 Q 1832 1641 1836 1639 Q 1834 1633 1838 1634 Q 1839 1636 1840 1634 L 1836 1621 L 1841 1617 Q 1846 1617 1849 1614 L 1886 1602 L 1888 1602 L 1916 1593 L 1918 1593 L 1933 1585 L 1950 1579 Q 1952 1580 1951 1578 L 1971 1570 L 1977 1569 L 1983 1565 L 2008 1556 L 2009 1554 L 2022 1549 L 2024 1549 L 2030 1545 L 2033 1539 L 2032 1537 L 2033 1532 L 2032 1528 L 2032 1526 L 2029 1520 Q 2030 1516 2028 1517 L 2025 1513 L 2020 1509 L 2012 1509 L 2011 1510 L 2009 1509 L 1998 1510 L 1997 1507 L 1993 1508 Q 1991 1511 1990 1509 Q 1988 1513 1981 1511 L 1982 1508 L 1972 1509 L 1969 1511 L 1966 1509 Q 1955 1508 1949 1511 Q 1946 1510 1947 1513 Q 1943 1514 1944 1511 L 1934 1511 L 1933 1512 L 1930 1511 L 1923 1513 Q 1916 1515 1915 1512 L 1910 1514 Q 1908 1517 1907 1513 L 1897 1516 L 1894 1515 L 1892 1516 L 1890 1515 L 1886 1515 L 1878 1518 Q 1874 1519 1875 1516 L 1876 1514 L 1872 1514 L 1864 1517 L 1860 1519 L 1859 1518 Q 1855 1519 1856 1516 L 1844 1517 L 1838 1519 Q 1836 1523 1834 1519 L 1825 1519 L 1824 1520 L 1820 1519 L 1818 1519 L 1810 1502 Q 1811 1497 1806 1499 L 1804 1486 L 1800 1482 L 1796 1473 Q 1797 1469 1793 1471 L 1792 1465 L 1785 1453 L 1784 1453 Q 1785 1456 1783 1455 Q 1780 1454 1782 1453 L 1776 1438 L 1775 1442 Q 1777 1443 1775 1444 L 1772 1440 L 1768 1437 L 1768 1433 Q 1763 1429 1761 1423 L 1753 1414 L 1751 1414 L 1751 1410 L 1750 1410 L 1746 1405 L 1744 1403 L 1738 1394 L 1736 1395 L 1733 1390 L 1730 1388 Q 1731 1390 1729 1389 L 1724 1380 L 1722 1381 L 1718 1375 L 1713 1374 L 1711 1370 L 1708 1368 L 1705 1364 L 1701 1360 L 1699 1358 Q 1698 1355 1694 1356 L 1692 1352 L 1688 1353 L 1686 1347 L 1681 1348 L 1679 1343 L 1676 1341 Q 1673 1342 1674 1340 L 1664 1331 Q 1660 1332 1661 1330 L 1655 1327 Q 1656 1324 1654 1325 L 1652 1325 L 1650 1325 L 1650 1321 L 1648 1322 Q 1644 1323 1643 1321 L 1643 1319 L 1639 1319 L 1639 1318 Q 1638 1315 1634 1316 L 1622 1309 L 1622 1307 L 1617 1307 L 1615 1300 L 1611 1301 L 1608 1298 L 1607 1299 L 1593 1292 L 1585 1291 L 1583 1287 L 1580 1288 Q 1575 1289 1577 1284 L 1574 1285 L 1570 1282 L 1566 1282 L 1564 1282 L 1560 1278 Q 1561 1275 1563 1277 L 1565 1275 L 1574 1274 L 1590 1266 L 1585 1265 L 1607 1256 L 1607 1255 Q 1604 1256 1605 1254 L 1610 1250 Q 1612 1251 1611 1248 L 1613 1246 Q 1620 1247 1623 1244 Q 1625 1245 1624 1243 L 1629 1240 Q 1633 1238 1630 1237 L 1634 1235 L 1636 1236 L 1645 1230 L 1646 1228 L 1648 1226 L 1654 1225 Q 1656 1221 1661 1220 L 1662 1216 L 1666 1216 L 1671 1212 L 1673 1212 L 1675 1209 Q 1672 1210 1673 1207 L 1681 1205 Q 1684 1203 1680 1202 L 1683 1196 L 1688 1196 L 1706 1181 Q 1705 1178 1709 1179 L 1713 1173 Q 1714 1170 1716 1172 L 1722 1167 L 1721 1164 L 1728 1161 L 1727 1158 L 1733 1154 L 1734 1151 Q 1733 1148 1737 1149 Q 1741 1147 1738 1146 L 1739 1143 L 1747 1140 Q 1749 1141 1748 1139 L 1748 1137 Q 1747 1134 1750 1135 L 1753 1127 L 1759 1123 Q 1760 1120 1757 1121 Q 1756 1118 1760 1119 Q 1764 1118 1763 1113 L 1766 1111 Q 1765 1106 1769 1105 Q 1768 1101 1771 1102 L 1777 1093 L 1779 1090 L 1783 1087 Q 1781 1080 1786 1082 L 1785 1080 Q 1784 1075 1787 1076 L 1793 1062 Q 1791 1054 1796 1056 L 1795 1052 L 1795 1050 L 1799 1050 L 1799 1044 L 1803 1037 L 1805 1024 L 1808 1021 L 1807 1016 L 1807 1014 Q 1806 1010 1809 1011 L 1808 1005 L 1811 1003 L 1812 1004 L 1811 1000 Q 1809 994 1813 995 L 1814 992 L 1812 985 L 1813 983 L 1813 981 Q 1812 976 1814 975 L 1813 972 L 1814 969 Q 1815 964 1813 963 L 1814 960 Q 1815 954 1811 953 L 1813 950 L 1812 944 L 1812 942 Q 1812 928 1805 922 L 1807 919 L 1807 917 L 1808 910 L 1809 914 L 1811 915 L 1810 908 L 1808 905 L 1793 856 L 1791 853 L 1790 857 L 1782 847 L 1783 845 L 1779 834 L 1775 831 Q 1774 825 1770 823 L 1769 818 L 1767 816 L 1763 809 L 1760 808 Q 1761 803 1759 804 L 1755 799 L 1751 797 L 1747 789 L 1745 790 L 1741 782 Q 1738 781 1739 784 L 1735 782 Q 1736 777 1732 779 L 1727 773 Q 1722 775 1723 771 L 1714 763 L 1711 763 L 1709 759 L 1707 760 L 1705 757 L 1701 758 L 1699 754 L 1696 755 L 1693 752 Q 1689 753 1688 751 L 1688 748 L 1683 748 L 1682 745 L 1679 746 L 1670 741 L 1663 742 L 1660 739 L 1659 740 L 1643 738 Q 1642 735 1645 736 L 1646 734 L 1636 736 L 1635 732 Q 1633 735 1628 733 Q 1626 736 1625 732 L 1620 733 Q 1614 735 1613 732 Z M 1117 1076 L 1116 1080 L 1121 1092 L 1123 1101 L 1125 1102 Q 1123 1087 1117 1076 Z " /><path fill="rgb(0,0,0)" stroke="rgb(0,0,0)" stroke-width="1" opacity="0" d="M 1597.5 780 L 1607 781.5 L 1605 785 L 1616.5 781 L 1621 781 L 1620 783.5 Q 1628.9 783.1 1634.5 786 L 1636.5 785 L 1644.5 787 L 1646.5 786 L 1650.5 789 L 1652.5 789 L 1655.5 790 L 1658.5 789 L 1664.5 794 L 1668 794 L 1669.5 797 L 1672.5 797 Q 1673 800.5 1677.5 800 Q 1678.8 797.8 1680 800.5 Q 1679.3 802.8 1681.5 802 L 1683.5 802 L 1688 806.5 L 1688 808 L 1692 808 L 1692 809.5 L 1699 815.5 L 1701 821 L 1707 823.5 L 1707.5 825 L 1709.5 825 Q 1712.5 824.1 1711 828.5 L 1714.5 831 L 1716.5 830 L 1719 832.5 Q 1719 839 1722.5 842 L 1723 840 L 1726 841.5 L 1731 848.5 Q 1730.4 853.6 1733.5 855 Q 1735.8 854.3 1735 856.5 L 1739.5 863 L 1741 863.5 L 1740 865.5 L 1746 880.5 L 1746 883.5 L 1753 896.5 L 1756 906.5 L 1757 918.5 L 1763 933.5 Q 1760.8 934.8 1762 939.5 L 1763 942.5 L 1761 945.5 L 1764 952.5 L 1763 955.5 L 1764 962 L 1761.5 961 L 1761 964.5 L 1764 975 Q 1758.4 972.8 1760 978.5 L 1761 984 Q 1757.7 982.7 1759 987.5 Q 1761.8 989.3 1760 995.5 L 1759 996.5 L 1759 1004.5 L 1756 1012.5 L 1757 1014.5 Q 1754.5 1016 1756 1021.5 L 1753 1026.5 L 1754 1030 Q 1748.8 1027.9 1750 1032.5 L 1751 1035.5 L 1748 1038.5 L 1748 1041.5 L 1743 1049.5 L 1743 1056 Q 1740.3 1054.9 1741 1057.5 L 1740 1059.5 L 1741 1061.5 L 1738 1068 L 1734 1069.5 L 1734 1073 Q 1731.3 1071.9 1732 1074.5 L 1726 1082.5 L 1722 1095.5 L 1719.5 1098 L 1717 1099.5 Q 1718.7 1104.3 1714.5 1103 L 1711 1105 L 1711 1108.5 L 1702.5 1120 L 1698 1123.5 L 1697 1128 L 1693.5 1128 L 1689 1131.5 L 1693 1132.5 L 1686 1136 L 1687 1140.5 Q 1685.6 1145 1680 1144 L 1680 1146.5 L 1675.5 1152 L 1673.5 1152 L 1662 1159.5 L 1659 1168 L 1654.5 1168 L 1646 1173.5 L 1648 1174 L 1646.5 1177 L 1639 1180.5 L 1640 1184 Q 1637.3 1182.9 1638 1185.5 L 1635.5 1188 L 1633.5 1188 Q 1629.5 1187.5 1629 1190.5 Q 1629.8 1192.8 1627.5 1192 L 1622 1195.5 Q 1622.9 1198.9 1617.5 1197 L 1614 1199.5 L 1612.5 1202 L 1607 1204 L 1605.5 1207 L 1602.5 1207 L 1591 1214.5 Q 1593.7 1216.3 1589.5 1218 L 1585.5 1218 L 1578 1223.5 L 1580 1224 Q 1581.1 1226.7 1578.5 1226 L 1573.5 1229 Q 1564.4 1229.6 1559 1233 L 1561 1236.5 L 1558 1238 L 1556.5 1242 L 1547.5 1243 L 1534 1248 L 1532.5 1251 L 1521 1255 L 1519.5 1259 L 1515.5 1258 L 1512 1258.5 L 1511 1254.5 L 1514 1253 L 1514 1249.5 L 1517 1246.5 L 1522 1236.5 L 1522 1233.5 Q 1525.6 1231.6 1525 1227 L 1530.5 1226 L 1534 1223.5 L 1531 1221.5 L 1537 1217.5 Q 1536.3 1212.8 1539.5 1212 L 1544 1208.5 L 1546.5 1205 L 1553 1201 L 1556 1195 L 1562 1191.5 L 1563 1187 Q 1568.6 1188 1570 1183.5 L 1571 1180.5 L 1568 1170.5 L 1564.5 1167 L 1560.5 1167 L 1545.5 1172 L 1541 1175.5 L 1542 1178 L 1535.5 1180 Q 1534 1177.5 1532.5 1181 Q 1524.5 1181.5 1520 1185.5 L 1523 1187.5 L 1520.5 1190 L 1511 1193.5 L 1513 1195.5 L 1509.5 1199 L 1507 1200.5 L 1504.5 1204 L 1500 1207.5 L 1500 1209.5 L 1495.5 1215 L 1493.5 1215 L 1489 1219.5 L 1489 1223 Q 1485.2 1221.5 1486 1224.5 L 1486 1226.5 Q 1487.1 1229.8 1484.5 1229 Q 1482.3 1229.8 1483 1233.5 L 1479.5 1237 L 1477 1238.5 L 1475 1242.5 L 1475 1251.5 Q 1471.3 1252.8 1472 1257 L 1469.5 1256 L 1465.5 1258 L 1461.5 1256 L 1459.5 1256 L 1456 1255.5 L 1458 1255 L 1459 1249 Q 1461.7 1250.1 1461 1247.5 L 1461 1245.5 L 1463 1238.5 L 1466 1235.5 Q 1465.3 1231.8 1467.5 1231 L 1470 1231 L 1470 1226 L 1472.5 1226 L 1474 1223.5 L 1473 1221.5 L 1476 1220 L 1476 1215 Q 1480.5 1216.8 1479 1211.5 L 1479 1209.5 L 1483 1196.5 L 1486 1192.5 L 1486 1189 L 1489 1187.5 L 1490 1185.5 L 1489.5 1184 L 1492 1182.5 L 1496 1162.5 L 1501 1152.5 L 1500 1147 Q 1504.9 1148.8 1503 1142.5 L 1502 1140.5 L 1507 1133.5 L 1511 1112.5 L 1510 1109.5 L 1512 1103.5 L 1512 1098.5 L 1513.5 1097 L 1515 1097.5 L 1514 1087.5 L 1515.5 1088 L 1517 1087.5 L 1517 1080.5 L 1516 1077.5 Q 1518.8 1075.8 1518 1070.5 L 1520 1068.5 L 1519 1067.5 L 1519 1054.5 L 1519 1052.5 L 1520 1042.5 L 1517 1037.5 L 1519 1032 Q 1523.1 1033.7 1522 1029.5 L 1518 1019.5 L 1518 1015 L 1520.5 1016 Q 1522.8 1015.3 1522 1011.5 L 1519 1001.5 L 1521 1001.5 L 1520 990.5 L 1520 988.5 L 1519 982.5 L 1516 977.5 L 1518 974.5 L 1517 973.5 L 1517 961.5 L 1514 955.5 L 1512 946.5 L 1509 942.5 L 1511 938.5 L 1507 922.5 L 1496 890.5 L 1492 880.5 L 1489 877.5 L 1484 860.5 L 1484 858.5 Q 1483.2 855.9 1486.5 857 L 1491 855 L 1490 851.5 L 1498 846.5 L 1498 843.5 Q 1502.8 842.1 1502 837 Q 1504.7 838.1 1504 835.5 L 1505 833 L 1508 831.5 L 1509.5 829 L 1512 827.5 L 1513 824 L 1516 822.5 Q 1515.3 820.3 1517.5 821 L 1525 814.5 L 1523 813.5 L 1525.5 811 L 1533.5 809 L 1536 806.5 L 1535 804.5 L 1540 800.5 Q 1539.1 797.5 1543.5 799 L 1555.5 795 L 1561.5 790 L 1580.5 785 L 1582.5 786 Q 1591.5 784.5 1597.5 780 Z " /><path fill="rgb(0,0,0)" stroke="rgb(0,0,0)" stroke-width="1" opacity="0" d="M 1305.5 786 L 1308.5 788 L 1313 787 L 1312 790.5 L 1314.5 791 Q 1317.8 788.3 1324.5 789 L 1324.5 791 L 1328.5 792 L 1331.5 791 L 1333.5 793 Q 1341.6 791.4 1344.5 795 L 1346.5 795 Q 1349.8 797.7 1356.5 797 L 1363 800.5 Q 1361.9 803.8 1364.5 803 L 1366.5 802 L 1369.5 806 L 1373 805 Q 1371.5 808.8 1374.5 808 L 1376.5 809 L 1378 808.5 L 1380.5 812 L 1384 811 L 1387.5 818 Q 1389.8 818.8 1389 816.5 L 1393.5 820 Q 1398.3 818.3 1397 822.5 L 1400 827 L 1404 829.5 L 1406 834 L 1407.5 834 L 1417 843.5 L 1416 844.5 L 1419 847.5 L 1423.5 856 L 1424.5 854 L 1430.5 865 Q 1432.8 865.8 1432 863.5 L 1435 865.5 L 1443 891 Q 1445.7 892.1 1445 889.5 L 1448 891.5 Q 1449.3 898.7 1454 902.5 L 1454 904.5 L 1465 940.5 L 1470 950 Q 1466.7 948.7 1468 953.5 Q 1471 956.5 1470 963.5 L 1467 962.5 L 1467 965.5 L 1474 984.5 L 1474 990.5 L 1471 989.5 L 1471 994.5 L 1475 1005.5 L 1475 1009.5 Q 1471 1011.5 1473 1019.5 L 1475 1022.5 L 1473 1025.5 Q 1475.5 1027 1474 1032.5 L 1473 1034.5 Q 1475.7 1036.8 1475 1042.5 L 1474 1044.5 L 1474 1046.5 L 1473 1048.5 L 1475 1056.5 L 1475 1058.5 L 1473 1065.5 L 1475 1069.5 L 1474 1074 Q 1468.8 1071.9 1470 1076.5 L 1472 1085 L 1469.5 1084 L 1469 1087.5 L 1470 1089.5 Q 1467.5 1091 1471 1092.5 L 1467 1101.5 L 1468 1105.5 L 1467 1109.5 L 1464 1112.5 L 1466 1118.5 L 1464 1121.5 L 1465 1124.5 L 1462.5 1130 L 1460.5 1129 L 1460 1130.5 L 1462 1138 Q 1458.2 1136.5 1459 1139.5 L 1458 1144 Q 1454.7 1142.7 1456 1147.5 L 1457 1150.5 L 1457 1152.5 L 1452 1162.5 L 1453 1164.5 Q 1448.5 1167.3 1450 1175 L 1447 1176.5 L 1448 1181 L 1444 1182.5 L 1446 1186.5 L 1443 1188 L 1443 1190.5 L 1440 1194.5 L 1440 1197.5 L 1438 1199.5 L 1438 1201.5 L 1437 1206.5 L 1434 1209.5 L 1435 1214 Q 1432.3 1212.9 1433 1215.5 L 1433 1217.5 L 1431.5 1220 L 1428 1220.5 L 1430 1223.5 L 1429 1226 Q 1426 1224.8 1427 1228.5 L 1421.5 1236 Q 1418.5 1235.1 1420 1239.5 Q 1416.5 1240 1417 1244.5 L 1417.5 1246 L 1414 1247 L 1415 1252 L 1391.5 1260 L 1390 1258.5 L 1388 1249.5 L 1392 1247.5 L 1390 1237.5 L 1392 1235.5 L 1393 1229.5 L 1392 1227.5 L 1395 1211.5 L 1394 1209.5 Q 1397.5 1208 1395 1206.5 L 1394 1203.5 L 1396.5 1199 Q 1399.8 1200.1 1399 1197.5 Q 1396.4 1196.1 1397 1191.5 L 1401 1188.5 L 1401.5 1184 L 1403 1184.5 Q 1402 1177.5 1405 1174.5 L 1405 1167.5 L 1413.5 1151 L 1416 1151 L 1416 1146 L 1417.5 1146 Q 1420.5 1144.5 1419 1138.5 L 1415 1130.5 L 1415 1128.5 L 1413 1122 L 1407.5 1121 Q 1404.3 1124.3 1397.5 1124 L 1392.5 1127 Q 1391.3 1124.8 1390 1127.5 L 1387 1131.5 L 1387 1134.5 L 1384 1137.5 L 1384 1141.5 L 1385 1146.5 L 1384 1151.5 L 1381.5 1155 L 1380 1155 L 1380 1159 L 1377 1159 L 1377 1161.5 L 1376 1163.5 L 1377 1166.5 L 1375 1170.5 L 1376 1171.5 L 1373 1174.5 L 1374 1181.5 Q 1371.8 1182.7 1373 1187.5 L 1370 1193.5 L 1372 1196.5 L 1371 1200.5 L 1368 1203.5 L 1368 1206.5 Q 1370.6 1207.9 1370 1212.5 L 1367 1214 L 1366 1218.5 L 1367 1221.5 L 1365 1223.5 L 1365 1233.5 L 1366 1236.5 L 1365 1238.5 L 1365 1240.5 L 1364 1243.5 L 1366 1249.5 Q 1363.8 1250.8 1365 1255.5 L 1366 1260 L 1363 1261.5 L 1361.5 1265 L 1356 1260.5 L 1357 1255.5 L 1355 1249.5 L 1357.5 1248 L 1359 1248.5 L 1358 1241.5 L 1349 1216.5 L 1349 1213.5 L 1342 1192.5 L 1338.5 1187 L 1337.5 1192 L 1330 1179.5 L 1330 1177.5 L 1327 1168 L 1313.5 1159 L 1305 1162 Q 1305.8 1165.8 1302.5 1167 L 1296 1168 L 1297 1178 Q 1292.5 1176.3 1294 1181.5 L 1296 1187.5 L 1298.5 1190 L 1299.5 1187 L 1306.5 1201 Q 1308.3 1197.3 1310 1200.5 L 1315 1207.5 L 1315 1211.5 L 1321 1229 L 1325 1231.5 L 1328 1244.5 L 1327 1246.5 L 1328 1249.5 L 1333 1266.5 L 1333 1268.5 L 1333 1271 L 1327.5 1271 L 1315.5 1275 L 1313 1277.5 L 1311.5 1280 L 1308.5 1280 L 1292.5 1286 L 1288 1284 L 1287 1278.5 L 1283.5 1274 L 1280.5 1275 L 1278 1271.5 L 1276 1262.5 L 1273.5 1260 L 1273 1262 Q 1269.2 1263.5 1270 1260.5 L 1267 1259 L 1266 1256.5 L 1266 1254.5 L 1264 1248 L 1260 1245.5 L 1259 1241.5 L 1255 1237.5 L 1250 1228 L 1247 1226.5 L 1246 1220.5 L 1241 1215.5 L 1237.5 1208 L 1235 1206.5 L 1235 1203.5 L 1228.5 1194 L 1227.5 1196 L 1218.5 1176 L 1217.5 1181 Q 1211.4 1173.4 1210 1162 L 1205 1161 L 1201.5 1154 L 1199 1152.5 L 1200 1149.5 L 1197 1143.5 L 1197 1140.5 L 1186.5 1122 L 1184 1120.5 L 1184 1115.5 L 1182 1108.5 L 1176 1091.5 L 1170 1081.5 L 1164 1062.5 L 1164 1055.5 L 1161 1044.5 L 1155 1029.5 L 1156 1025.5 Q 1153.4 1022.6 1154 1016.5 L 1155 1012.5 L 1153 1009.5 L 1153 1007.5 L 1151 1002.5 L 1152 997.5 L 1151 993.5 L 1154 990.5 L 1153 989.5 L 1150 976 L 1154 974.5 L 1152 970.5 L 1153 968.5 L 1152 965 Q 1156.1 966.7 1155 962.5 L 1154 959.5 L 1155 957.5 L 1154 954.5 L 1156 946.5 L 1156 944.5 L 1157 941.5 L 1157 939.5 Q 1155.7 934.8 1158 933.5 L 1158 931.5 L 1158 926.5 L 1160 920 Q 1164.5 921.8 1163 916.5 L 1162 914.5 L 1168 906.5 L 1168 904.5 L 1168 900 Q 1170.7 901.1 1170 898.5 L 1170 896.5 Q 1169 891.5 1172 892.5 L 1172 888.5 L 1175 881 L 1178 881 L 1178 877 L 1179.5 877 L 1182 876 L 1182 871 L 1183.5 871 L 1185 868.5 Q 1182.8 867.3 1185.5 866 L 1189 863.5 Q 1185.3 861.8 1188.5 860 L 1191 858.5 L 1190 855.5 L 1193.5 851 L 1196 849.5 L 1197.5 847 L 1203 845 Q 1202 841.2 1204.5 840 Q 1206.8 840.8 1206 838.5 L 1211 834.5 L 1213 831.5 L 1215.5 828 L 1218 826.5 L 1217 823.5 L 1229 819 L 1227 815.5 L 1231 810 Q 1238.1 810.8 1242 808 L 1244.5 804 L 1251 800.5 Q 1250.4 797.8 1256.5 799 L 1284.5 789 L 1287.5 790 Q 1290.8 787.3 1297.5 788 L 1301.5 789 L 1305.5 786 Z " /><path fill="rgb(0,0,0)" stroke="rgb(0,0,0)" stroke-width="1" opacity="0" d="M 1508 1260 L 1513 1260.5 L 1510.5 1264 Q 1506.1 1265.5 1507 1262.5 L 1508 1260 Z " /><path fill="rgb(0,0,0)" stroke="rgb(0,0,0)" stroke-width="1" opacity="0" d="M 1435.5 1963 L 1438 1963.5 L 1435.5 1964 L 1435.5 1963 Z " /><path fill="rgb(64,63,54)" stroke="rgb(64,63,54)" stroke-width="1" opacity="0.9725490196078431" d="M 1611.5 736 Q 1613.8 739.2 1620.5 738 Q 1622 735.5 1627.5 737 L 1634.5 740 Q 1644.7 738.8 1649.5 743 L 1655 742 L 1655 744 L 1661.5 744 L 1662 745.5 L 1665.5 747 L 1669.5 746 L 1676.5 751 L 1688 753 L 1690.5 757 L 1693.5 756 L 1696.5 760 L 1699.5 760 L 1711 766.5 Q 1710.3 768.8 1712.5 768 Q 1713.9 772.8 1719 772 Q 1717.9 774.7 1720.5 774 L 1724 776.5 Q 1723.2 779.1 1726.5 778 L 1734.5 787 L 1738 788 L 1738 789.5 L 1746.5 798 L 1750 800.5 Q 1749.5 805.5 1753.5 806 L 1757 807.5 L 1763.5 817 Q 1765.8 816.3 1765 818.5 L 1775 833.5 L 1780 843.5 L 1781 848.5 L 1789 861.5 L 1798 886.5 L 1805 915.5 L 1804 918.5 L 1809 935.5 L 1809 947.5 L 1809 949.5 L 1810 960.5 L 1809 961.5 L 1809 969.5 L 1810 974.5 Q 1806.5 976 1808 982.5 L 1809 985.5 L 1806 997.5 L 1806 999.5 L 1804 1006.5 L 1805 1008.5 L 1803 1012.5 Q 1805.5 1014 1802 1015.5 Q 1800.8 1020.3 1803 1021.5 Q 1798.9 1023.8 1800 1030 Q 1796.7 1028.7 1798 1033.5 L 1795 1038.5 L 1791 1053.5 L 1788 1057.5 L 1787 1063.5 L 1788 1064.5 Q 1782.6 1067.3 1784.5 1070 Q 1782.3 1069.3 1783 1071.5 L 1777 1080.5 L 1777 1083.5 L 1768 1096.5 Q 1768.7 1101.7 1765 1102.5 L 1765 1106 L 1761 1108.5 L 1761 1110.5 L 1751.5 1124 L 1749 1125.5 Q 1749.8 1129.3 1747.5 1130 L 1742 1133 L 1740 1139 L 1736 1141.5 L 1730.5 1150 L 1726 1152 Q 1726.8 1155.8 1723.5 1157 L 1719 1159 L 1719 1161.5 L 1711.5 1170 L 1708 1171 Q 1708.8 1175.7 1704.5 1177 L 1700 1179.5 L 1695.5 1185 L 1690 1188 L 1687.5 1192 L 1679 1196.5 L 1677.5 1200 L 1672.5 1202 L 1662 1211.5 Q 1662.9 1214.5 1658.5 1213 L 1653 1217.5 L 1649.5 1223 Q 1640.9 1223.4 1637 1228.5 Q 1639.3 1229.8 1636.5 1231 L 1625 1236.5 Q 1627.3 1237.8 1624.5 1239 L 1618.5 1243 L 1615.5 1243 L 1607 1247 Q 1608.5 1250.8 1605.5 1250 L 1593.5 1256 L 1590.5 1259 L 1583.5 1261 L 1571.5 1270 L 1567.5 1270 L 1565.5 1272 L 1556 1275 L 1555 1278.5 L 1559.5 1284 L 1570.5 1287 L 1585.5 1295 L 1589.5 1295 L 1609.5 1305 L 1613.5 1309 L 1620.5 1311 L 1624.5 1315 L 1627.5 1315 L 1630.5 1318 L 1640 1321.5 Q 1639.3 1323.8 1641.5 1323 L 1645 1324 Q 1643.9 1326.7 1646.5 1326 L 1650 1327 L 1651.5 1330 Q 1654.5 1329.2 1653 1333 L 1655.5 1333 L 1674 1343 Q 1672.9 1345.7 1675.5 1345 L 1682 1350.5 L 1685.5 1355 L 1689 1356.5 L 1690 1360 L 1695.5 1363 L 1699 1363 L 1702.5 1369 L 1706 1370.5 Q 1704.8 1374.3 1708.5 1373 L 1713 1376 L 1713 1378.5 L 1716.5 1383 Q 1720.3 1382.3 1721 1384.5 L 1724.5 1391 L 1731 1394 L 1731 1396.5 L 1735.5 1401 Q 1737.8 1400.3 1737 1402.5 L 1740 1404 Q 1739.3 1407.8 1742.5 1409 L 1745.5 1411 L 1748 1412 L 1748 1415.5 L 1751.5 1420 L 1752.5 1419 L 1756 1422.5 L 1769.5 1442 Q 1771.8 1441.3 1771 1443.5 L 1776 1449.5 Q 1777.3 1456.3 1781.5 1460 L 1784 1461.5 L 1785.5 1464 L 1789 1466.5 L 1790 1473.5 L 1798 1487 L 1801 1488.5 L 1807 1507.5 L 1810 1510.5 L 1814.5 1520 Q 1816.8 1519.3 1816 1521.5 L 1817.5 1523 L 1822.5 1523 L 1829.5 1525 L 1831.5 1525 L 1840.5 1522 L 1856.5 1522 L 1857.5 1521 L 1868.5 1521 L 1869.5 1520 L 1879.5 1520 L 1880.5 1519 L 1891.5 1519 L 1892.5 1518 L 1917.5 1516 L 1919.5 1517 L 1922.5 1516 L 1924.5 1516 L 1928.5 1517 Q 1930.5 1514 1936.5 1515 L 1938.5 1516 L 1940.5 1516 L 1946.5 1516 L 1953.5 1513 Q 1958.1 1515.9 1966.5 1515 L 1967.5 1514 L 1978.5 1514 Q 1979.8 1516.3 1984.5 1515 L 1985.5 1514 L 2002.5 1513 L 2004.5 1512 Q 2006 1515.5 2007.5 1513 L 2015.5 1513 L 2021.5 1518 L 2025 1518 L 2029 1527.5 L 2029 1533.5 L 2020.5 1546 L 2001.5 1552 L 1974.5 1566 L 1958.5 1571 L 1945.5 1578 L 1940.5 1579 L 1918.5 1589 L 1868.5 1606 L 1850.5 1610 L 1839.5 1614 L 1833 1618.5 L 1834 1635.5 Q 1831 1636.5 1832 1641.5 L 1833 1642.5 L 1833 1650 Q 1830 1648.8 1831 1652.5 Q 1833.2 1653.8 1832 1658.5 L 1829 1660 L 1830 1664.5 L 1827 1677.5 Q 1829.5 1679 1826 1680.5 L 1824 1687.5 L 1825 1690.5 L 1825 1692.5 L 1823 1695.5 L 1821 1708.5 L 1818 1711.5 Q 1818.8 1715.3 1816.5 1716 Q 1813.8 1715.4 1815 1721.5 Q 1812.3 1723.8 1813 1729.5 L 1802.5 1748 L 1800 1749.5 L 1792 1768.5 L 1788 1772.5 L 1788 1775.5 L 1771 1796.5 L 1771 1799 L 1767 1800.5 L 1766 1806 L 1761 1809.5 Q 1762.5 1813.9 1759.5 1813 L 1757 1813.5 Q 1755.2 1820.7 1749.5 1824 L 1747 1823 L 1747 1826.5 L 1742.5 1832 L 1730 1841.5 L 1729 1846 Q 1722.9 1846.8 1720 1852.5 L 1718.5 1855 L 1712 1857 L 1709.5 1861 L 1706.5 1863 L 1697 1868.5 L 1694.5 1872 L 1682 1878.5 L 1679.5 1882 Q 1678.1 1884.6 1673.5 1884 L 1664 1890.5 L 1662 1893.5 L 1656.5 1898 L 1638.5 1904 L 1632.5 1910 L 1601.5 1921 L 1596.5 1925 L 1582.5 1931 L 1541.5 1944 L 1516.5 1948 L 1487.5 1958 L 1470.5 1958 L 1451.5 1964 L 1440.5 1962 L 1424.5 1966 L 1412.5 1967 L 1408.5 1966 L 1398.5 1969 L 1387.5 1969 L 1385.5 1968 L 1377.5 1971 Q 1368.6 1969.8 1365 1972 Q 1366.1 1969.3 1363.5 1970 L 1356.5 1973 L 1351.5 1973 L 1344.5 1971 L 1333.5 1974 L 1327.5 1972 L 1322.5 1972 Q 1321.3 1975.3 1315.5 1974 L 1305.5 1972 Q 1304.1 1974.6 1299.5 1974 L 1298.5 1973 L 1287.5 1972 L 1286.5 1973 L 1276 1973 Q 1277.3 1970 1273.5 1971 L 1267.5 1973 L 1264 1971.5 L 1264.5 1970 L 1259.5 1970 Q 1258.5 1973 1253.5 1972 Q 1251.6 1968.4 1245.5 1969 Q 1244 1972.5 1242.5 1970 L 1227.5 1967 L 1213 1966 Q 1214.3 1962.3 1208.5 1964 L 1206.5 1965 L 1201.5 1962 L 1197.5 1963 L 1190.5 1959 L 1180.5 1957 L 1178.5 1957 L 1165.5 1952 L 1158.5 1951 L 1156.5 1949 L 1152.5 1949 L 1146 1946 Q 1147.3 1942.7 1142.5 1944 L 1139.5 1941 L 1133.5 1938 L 1130.5 1938 L 1127.5 1935 L 1124 1935 L 1122.5 1931 L 1119 1932 L 1120 1929.5 L 1109.5 1922 L 1107 1923 L 1104.5 1919 L 1101.5 1919 L 1097 1916 L 1098 1913.5 L 1090 1909 L 1088.5 1906 L 1086 1904.5 Q 1086.8 1902.3 1084.5 1903 L 1081.5 1899 L 1079 1897.5 Q 1079.9 1894.5 1075.5 1896 L 1072 1889 Q 1067.3 1889.8 1066 1885.5 L 1063.5 1881 Q 1061.3 1881.8 1062 1879.5 Q 1064.8 1877.7 1060.5 1876 L 1056 1872.5 L 1052 1863 L 1044 1858 L 1042 1848.5 L 1037.5 1843 L 1033 1839.5 L 1028 1823.5 Q 1021 1818.5 1018 1809.5 L 1012 1789.5 L 1004 1772.5 L 1001 1760.5 L 997 1753.5 L 991 1736.5 L 990 1727.5 L 990 1725.5 L 990 1722.5 L 980 1694.5 L 978 1685.5 L 978 1678.5 Q 980.2 1677.3 979 1672.5 L 975 1663.5 L 973 1652.5 L 975 1642.5 L 974 1637.5 L 971 1632.5 L 973 1628.5 L 972 1625.5 Q 974.5 1624 973 1618.5 L 971 1612.5 L 972 1607.5 L 974 1605.5 L 972 1603.5 L 972 1589 Q 975 1590.3 974 1586.5 Q 971.5 1585 973 1579.5 L 975 1576.5 Q 972.5 1575 974 1569.5 L 976 1561.5 L 975 1559.5 Q 979 1557.5 977 1549.5 L 981 1542.5 L 981 1534.5 L 984 1530.5 L 983 1525.5 L 995 1492 Q 999 1493.4 997 1486.5 L 1000 1483.5 L 1000 1479.5 L 1015.5 1452 Q 1018.5 1452.9 1017 1448.5 L 1022.5 1441 L 1027 1437.5 L 1034.5 1423 Q 1036.3 1425.8 1038 1421.5 L 1037 1419.5 L 1043 1414.5 Q 1041.5 1410.1 1044.5 1411 L 1047.5 1407 L 1050 1405.5 L 1051.5 1403 Q 1054.1 1403.7 1053 1401 L 1055.5 1401 L 1060 1393 L 1068 1388.5 Q 1067.3 1386.3 1069.5 1387 L 1072.5 1383 L 1075 1381.5 Q 1074.3 1377.8 1076.5 1377 L 1082 1374.5 Q 1080.9 1371.2 1083.5 1372 Q 1086.6 1367.4 1093 1367 L 1098.5 1360 L 1106.5 1356 L 1117.5 1347 L 1129.5 1341 L 1135.5 1335 L 1156 1328 Q 1154.9 1325.3 1157.5 1326 L 1170.5 1319 L 1203.5 1308 L 1226.5 1305 L 1234.5 1303 L 1240 1299.5 L 1240 1294.5 L 1236 1284 Q 1231.3 1283.6 1229 1279.5 L 1225.5 1272 L 1223 1270.5 Q 1218.3 1265.4 1217 1258 L 1213 1255.5 Q 1206.8 1248.5 1204 1239 L 1201 1237.5 L 1195 1230.5 L 1194 1225.5 L 1186.5 1215 Q 1184.3 1215.8 1185 1213.5 L 1178 1200 L 1175 1198.5 L 1170 1184 L 1167 1182.5 L 1158 1166.5 L 1158 1163.5 L 1154 1158.5 L 1147 1140.5 L 1139 1126.5 L 1137 1119.5 L 1138 1117.5 L 1134 1110.5 L 1134 1105.5 L 1129 1098.5 L 1124 1083.5 L 1122 1068.5 Q 1116.9 1061.6 1115 1051.5 L 1111 1023.5 L 1112 1021.5 L 1108 1009.5 L 1108 1002.5 L 1109 999.5 L 1109 997.5 Q 1106.1 992.9 1107 984.5 L 1108 983.5 L 1108 975.5 L 1107 970.5 L 1110 963.5 L 1108 959.5 L 1109 958.5 L 1109 945.5 L 1111 939.5 L 1111 930.5 L 1113 925.5 L 1115 912.5 L 1118 909.5 L 1118 904.5 L 1122 895.5 L 1122 890.5 Q 1125 889.5 1124 884.5 L 1127 881.5 L 1130 870.5 L 1140 855.5 L 1141 850 L 1144 848.5 Q 1143.3 843.8 1146.5 843 Q 1148.8 843.8 1148 841.5 L 1154 832.5 L 1154 830 L 1157 830 L 1157 828 Q 1159.7 829.1 1159 826.5 L 1160 822 L 1164 821 L 1164 816 L 1165.5 816 L 1169 813.5 L 1172.5 808 L 1177 807 Q 1176 800.6 1181.5 799 L 1188 796 L 1191 790 L 1199 785.5 L 1202.5 780 L 1213 775 L 1214.5 772 L 1233 764.5 L 1232.5 763 L 1241.5 758 L 1258.5 752 L 1272.5 748 L 1279.5 748 L 1283.5 749 L 1293.5 745 L 1302.5 745 L 1305.5 747 L 1315.5 744 Q 1317.8 747.2 1324.5 746 L 1326.5 746 L 1337.5 748 L 1340.5 747 L 1346.5 750 L 1354.5 750 L 1357.5 753 L 1361.5 752 L 1364.5 755 L 1369.5 755 Q 1370.5 758 1375.5 757 L 1384.5 763 L 1388 763 Q 1386.3 767.1 1390.5 766 L 1391.5 765 L 1394.5 768 L 1410 778 Q 1408.9 780.7 1411.5 780 L 1416.5 785 L 1424 788.5 Q 1422.3 793.3 1426.5 792 L 1431 795.5 L 1432.5 798 L 1439 803.5 L 1442.5 810 Q 1447.5 809.5 1448 813.5 Q 1449.3 820.3 1453.5 824 Q 1461.1 825.1 1463 820.5 L 1463 818.5 L 1469.5 810 L 1472 808.5 Q 1471.3 804.8 1473.5 804 L 1477 801.5 L 1480.5 796 L 1484 794.5 L 1486 790 L 1493 785.5 L 1497 779 L 1504 775.5 L 1507 770 L 1513.5 768 L 1519 764 Q 1517.9 761.3 1520.5 762 L 1524.5 759 L 1544 752.5 L 1543.5 751 L 1567.5 743 L 1571.5 744 L 1588.5 738 L 1595.5 737 L 1598.5 738 L 1602.5 739 L 1611.5 736 Z M 1602 777 L 1590 781 L 1575 783 L 1563 787 L 1555 792 L 1542 796 L 1538 799 Q 1535 798 1536 801 L 1530 806 L 1522 810 L 1518 816 L 1514 818 Q 1511 818 1511 823 Q 1509 827 1508 824 Q 1503 826 1506 828 L 1505 831 L 1503 832 L 1499 838 L 1497 838 L 1497 842 L 1492 845 L 1487 851 L 1480 854 L 1480 861 L 1486 876 L 1491 894 L 1495 899 L 1496 905 L 1499 910 L 1504 925 Q 1505 929 1503 931 L 1505 938 L 1507 937 L 1506 939 L 1513 961 Q 1511 976 1516 985 L 1515 998 L 1514 999 L 1516 1005 L 1516 1015 L 1515 1016 L 1516 1018 L 1516 1031 Q 1519 1032 1515 1034 Q 1513 1040 1516 1042 Q 1518 1047 1515 1049 Q 1514 1054 1516 1056 L 1513 1065 L 1513 1067 L 1515 1071 L 1511 1078 L 1513 1081 Q 1510 1082 1511 1087 L 1511 1089 L 1510 1100 L 1508 1103 L 1509 1106 L 1507 1112 L 1507 1114 Q 1508 1120 1505 1122 L 1505 1124 L 1502 1131 L 1502 1135 L 1499 1138 L 1498 1147 L 1498 1149 L 1496 1153 Q 1498 1158 1494 1157 Q 1495 1163 1491 1166 Q 1493 1173 1489 1172 L 1486 1179 L 1486 1183 L 1484 1185 L 1483 1191 L 1478 1201 L 1478 1203 L 1462 1233 Q 1464 1239 1459 1237 L 1451 1257 L 1459 1262 L 1464 1261 L 1468 1262 Q 1473 1263 1474 1259 Q 1473 1256 1476 1257 L 1477 1252 L 1479 1250 L 1479 1241 L 1482 1241 L 1483 1239 Q 1482 1236 1485 1237 L 1489 1230 Q 1488 1227 1491 1228 L 1495 1218 L 1499 1217 Q 1501 1217 1501 1213 L 1505 1211 Q 1505 1205 1510 1203 Q 1512 1204 1511 1202 L 1520 1193 L 1525 1192 L 1526 1190 L 1532 1185 Q 1543 1182 1551 1176 L 1564 1174 Q 1566 1175 1565 1179 L 1565 1181 Q 1566 1184 1563 1183 L 1555 1192 L 1553 1193 Q 1550 1194 1551 1198 Q 1550 1201 1546 1200 Q 1541 1202 1544 1204 L 1539 1208 L 1537 1208 L 1537 1212 L 1535 1212 L 1528 1219 L 1523 1227 Q 1519 1226 1521 1232 L 1518 1233 Q 1519 1239 1515 1241 L 1516 1243 L 1513 1244 L 1513 1248 L 1509 1252 L 1509 1255 L 1504 1262 Q 1503 1267 1507 1269 L 1513 1267 L 1514 1263 L 1529 1257 L 1540 1249 L 1560 1242 L 1561 1240 Q 1569 1232 1582 1229 L 1585 1224 L 1600 1216 L 1601 1214 Q 1604 1209 1611 1208 L 1618 1201 L 1626 1198 L 1627 1195 L 1633 1191 L 1639 1189 L 1640 1187 Q 1649 1176 1662 1169 Q 1665 1169 1664 1165 L 1668 1163 Q 1667 1160 1670 1161 L 1674 1155 L 1680 1153 Q 1682 1152 1681 1149 L 1688 1145 Q 1690 1144 1689 1140 L 1694 1138 L 1705 1122 L 1708 1120 L 1709 1117 Q 1708 1114 1711 1115 L 1719 1104 Q 1718 1101 1721 1102 L 1722 1099 L 1731 1087 Q 1730 1083 1733 1084 L 1740 1069 Q 1739 1066 1742 1067 L 1742 1064 L 1747 1055 L 1749 1047 Q 1752 1045 1750 1044 L 1753 1040 L 1755 1031 L 1758 1027 Q 1757 1021 1760 1019 L 1760 1012 L 1762 1010 L 1762 1004 L 1765 1000 L 1764 996 L 1767 985 L 1766 982 Q 1764 974 1768 973 L 1766 966 L 1766 964 L 1767 961 L 1766 959 L 1767 955 L 1765 948 L 1765 939 L 1766 938 L 1760 915 Q 1758 908 1761 907 L 1758 902 L 1752 884 L 1745 871 L 1742 861 L 1738 856 Q 1739 853 1736 854 L 1723 833 L 1718 828 L 1715 824 L 1712 821 L 1706 814 L 1699 810 Q 1696 811 1697 809 L 1694 807 L 1691 804 L 1683 797 L 1673 792 L 1670 792 L 1667 789 L 1664 789 L 1660 786 L 1657 786 L 1655 786 L 1652 786 L 1652 784 L 1648 784 L 1645 781 L 1644 782 L 1638 782 L 1633 779 Q 1627 781 1626 778 L 1624 779 L 1621 777 Q 1617 780 1610 778 L 1609 779 Q 1603 780 1602 777 Z M 1310 783 L 1299 786 L 1297 785 L 1288 786 L 1286 786 L 1245 799 L 1245 801 L 1243 800 L 1243 802 L 1240 805 L 1227 810 L 1226 814 L 1219 820 L 1217 819 L 1212 825 L 1212 827 L 1210 828 L 1206 834 L 1204 835 L 1202 838 L 1200 839 L 1195 844 L 1195 847 L 1193 848 L 1188 855 Q 1189 857 1187 856 L 1178 868 L 1176 876 L 1173 879 Q 1174 882 1172 883 L 1170 883 L 1170 888 L 1167 890 Q 1169 895 1166 894 L 1164 896 L 1163 905 L 1159 912 L 1158 920 L 1156 922 Q 1157 926 1155 928 Q 1156 931 1153 930 L 1154 936 L 1151 943 L 1152 945 L 1150 952 L 1149 971 L 1147 977 L 1147 983 Q 1150 984 1149 989 L 1149 991 Q 1151 997 1148 999 Q 1148 1006 1151 1011 L 1150 1024 L 1152 1023 L 1152 1030 L 1159 1052 L 1160 1064 L 1167 1086 L 1174 1098 L 1181 1116 L 1182 1122 L 1196 1147 L 1199 1157 Q 1198 1159 1202 1158 L 1211 1177 L 1221 1191 L 1223 1198 L 1228 1205 L 1231 1206 L 1233 1209 L 1234 1214 L 1238 1220 L 1242 1221 L 1246 1231 Q 1245 1233 1248 1232 L 1262 1252 L 1266 1262 L 1275 1271 L 1282 1281 Q 1281 1283 1284 1282 L 1289 1289 L 1294 1289 L 1297 1287 L 1311 1284 Q 1320 1278 1334 1275 L 1335 1274 Q 1334 1269 1336 1268 L 1331 1251 L 1328 1232 L 1323 1226 L 1323 1223 L 1315 1205 Q 1316 1201 1314 1202 L 1309 1197 L 1308 1192 L 1301 1181 L 1301 1172 Q 1307 1167 1316 1165 Q 1319 1164 1318 1167 L 1321 1167 L 1325 1172 L 1330 1186 L 1333 1187 L 1349 1226 L 1349 1232 L 1354 1250 L 1354 1261 L 1359 1267 Q 1365 1268 1367 1264 L 1369 1258 Q 1370 1250 1367 1246 L 1370 1240 L 1369 1237 Q 1368 1231 1371 1229 L 1370 1226 L 1370 1224 Q 1369 1215 1373 1213 L 1374 1192 Q 1378 1190 1376 1183 L 1379 1181 L 1378 1179 L 1378 1174 L 1382 1165 L 1382 1161 L 1387 1153 L 1387 1147 L 1390 1144 Q 1390 1136 1393 1132 Q 1396 1127 1403 1126 Q 1407 1125 1408 1128 Q 1407 1130 1410 1129 L 1414 1135 L 1413 1143 L 1410 1147 L 1410 1152 L 1408 1154 L 1408 1157 L 1405 1163 L 1402 1166 L 1402 1171 Q 1397 1172 1398 1180 L 1398 1182 L 1393 1195 L 1394 1197 L 1392 1201 L 1392 1213 L 1390 1215 Q 1391 1221 1388 1224 L 1389 1229 L 1387 1234 L 1386 1247 L 1385 1248 L 1385 1255 Q 1388 1257 1387 1261 L 1392 1262 L 1397 1260 L 1411 1260 L 1413 1259 L 1423 1244 L 1425 1238 L 1429 1234 L 1429 1231 L 1432 1228 L 1437 1217 L 1437 1214 L 1440 1212 L 1440 1209 L 1445 1201 L 1444 1199 L 1445 1196 Q 1443 1191 1447 1192 L 1453 1179 L 1454 1174 L 1455 1171 L 1455 1166 L 1457 1165 L 1457 1159 L 1459 1159 L 1464 1145 L 1466 1130 L 1468 1128 L 1468 1120 L 1470 1118 L 1469 1115 Q 1468 1109 1472 1108 L 1471 1106 Q 1470 1098 1474 1096 L 1475 1078 L 1477 1073 Q 1479 1067 1476 1066 L 1478 1059 L 1477 1054 Q 1475 1046 1479 1045 L 1477 1038 Q 1476 1032 1479 1031 Q 1480 1024 1477 1022 Q 1476 1017 1479 1017 L 1478 1015 L 1479 1013 L 1477 1004 Q 1476 999 1478 998 L 1473 974 L 1473 961 L 1471 953 L 1471 951 L 1454 898 Q 1455 895 1452 896 L 1439 871 L 1438 866 Q 1439 862 1436 863 L 1426 847 Q 1425 844 1422 844 Q 1418 843 1419 839 L 1413 834 L 1411 831 Q 1409 826 1404 826 L 1402 821 Q 1401 818 1397 819 L 1395 815 Q 1392 816 1393 813 L 1388 809 Q 1384 810 1385 808 L 1375 800 L 1368 799 L 1361 795 L 1357 795 L 1345 789 L 1341 789 Q 1339 785 1338 788 L 1330 786 L 1313 785 L 1310 783 Z M 1418 1305 L 1405 1308 L 1397 1308 L 1396 1307 L 1388 1308 L 1373 1313 L 1368 1312 L 1353 1314 L 1344 1317 L 1339 1321 L 1347 1335 L 1353 1338 L 1356 1347 L 1361 1350 L 1368 1366 L 1375 1375 L 1382 1393 L 1387 1401 Q 1386 1403 1389 1402 L 1393 1411 L 1401 1437 L 1417 1469 L 1421 1481 L 1429 1507 L 1433 1534 L 1440 1555 L 1441 1565 L 1441 1567 L 1442 1579 L 1447 1595 L 1446 1599 L 1446 1607 L 1449 1618 L 1450 1658 L 1451 1659 Q 1453 1665 1450 1667 Q 1449 1674 1452 1678 Q 1453 1684 1450 1686 L 1451 1689 L 1448 1742 L 1445 1753 L 1445 1762 L 1443 1767 L 1442 1781 L 1437 1801 L 1437 1806 L 1435 1808 L 1434 1816 L 1430 1826 L 1430 1831 L 1424 1848 L 1424 1853 L 1421 1856 L 1419 1866 L 1416 1870 L 1416 1873 L 1409 1887 L 1408 1892 L 1392 1921 L 1393 1925 L 1397 1927 L 1401 1926 L 1406 1927 Q 1419 1927 1429 1922 L 1444 1922 L 1471 1915 L 1480 1915 L 1490 1913 L 1525 1903 L 1528 1900 L 1529 1894 L 1532 1888 L 1532 1884 L 1537 1873 L 1537 1868 L 1539 1866 L 1540 1859 L 1542 1857 L 1544 1843 L 1546 1841 Q 1546 1831 1550 1826 L 1552 1811 L 1554 1806 L 1554 1800 L 1556 1795 L 1555 1793 L 1558 1781 L 1557 1779 L 1560 1771 L 1559 1769 L 1561 1761 L 1561 1752 L 1563 1747 L 1562 1745 Q 1561 1738 1564 1736 L 1563 1733 L 1563 1731 L 1564 1728 L 1564 1710 L 1565 1709 L 1565 1697 L 1564 1696 L 1566 1690 L 1564 1682 Q 1563 1676 1566 1675 Q 1567 1670 1565 1669 L 1565 1658 L 1566 1657 L 1564 1648 L 1564 1639 L 1565 1638 L 1561 1618 L 1562 1614 L 1562 1612 L 1562 1607 L 1558 1594 L 1557 1585 L 1557 1583 L 1558 1580 L 1549 1547 L 1549 1543 L 1549 1541 L 1548 1540 L 1548 1531 L 1546 1523 L 1524 1457 L 1512 1436 L 1507 1420 Q 1503 1410 1496 1403 L 1491 1389 L 1483 1379 Q 1479 1367 1471 1360 L 1467 1350 Q 1459 1344 1456 1335 L 1453 1333 L 1448 1324 L 1440 1316 L 1437 1309 L 1430 1305 L 1426 1306 L 1418 1305 Z M 1543 1319 L 1536 1321 L 1538 1329 Q 1539 1332 1544 1332 L 1547 1339 L 1553 1343 L 1556 1350 L 1563 1357 L 1582 1384 Q 1581 1386 1584 1385 L 1591 1399 Q 1590 1401 1593 1400 Q 1598 1406 1600 1416 L 1608 1425 L 1615 1443 L 1624 1457 L 1632 1482 L 1636 1486 L 1642 1506 L 1650 1520 L 1652 1529 L 1652 1537 L 1657 1549 L 1659 1564 L 1666 1585 L 1667 1597 L 1668 1598 L 1668 1609 L 1672 1622 Q 1674 1627 1671 1629 Q 1671 1638 1674 1644 Q 1676 1649 1673 1651 L 1674 1663 L 1675 1666 L 1674 1668 L 1674 1679 L 1675 1680 L 1673 1719 Q 1670 1720 1672 1727 L 1670 1731 L 1671 1734 L 1669 1749 L 1667 1752 L 1665 1774 L 1662 1778 L 1662 1784 L 1660 1786 L 1660 1791 L 1655 1802 L 1655 1806 L 1651 1816 L 1651 1820 L 1648 1823 Q 1650 1828 1646 1827 L 1644 1836 L 1636 1850 Q 1634 1856 1638 1858 Q 1644 1856 1648 1851 L 1660 1846 Q 1663 1840 1671 1838 L 1675 1833 L 1684 1828 L 1687 1823 L 1696 1818 L 1701 1811 L 1708 1808 L 1717 1797 L 1722 1793 L 1723 1790 L 1728 1786 L 1736 1775 Q 1735 1772 1738 1773 L 1741 1769 L 1742 1746 L 1743 1744 L 1743 1742 L 1744 1716 L 1746 1711 L 1745 1709 L 1745 1699 L 1746 1698 L 1746 1690 L 1745 1689 L 1747 1685 Q 1748 1680 1746 1679 L 1746 1671 L 1747 1670 L 1747 1664 L 1745 1657 L 1746 1655 L 1745 1623 L 1743 1618 L 1743 1600 L 1737 1577 L 1738 1572 L 1732 1548 L 1701 1453 L 1699 1444 L 1698 1426 L 1697 1425 L 1698 1422 Q 1699 1416 1697 1414 L 1688 1407 L 1686 1405 L 1673 1393 L 1671 1390 L 1649 1374 L 1646 1370 L 1637 1366 L 1616 1351 Q 1611 1352 1612 1350 L 1595 1340 L 1592 1340 L 1586 1337 L 1583 1334 L 1579 1334 L 1577 1332 L 1574 1332 L 1556 1324 L 1553 1324 L 1543 1319 Z M 1248 1348 L 1242 1351 Q 1235 1352 1232 1349 L 1213 1350 L 1191 1357 L 1168 1369 L 1154 1374 L 1151 1377 Q 1148 1376 1149 1379 L 1134 1386 L 1132 1389 L 1121 1397 Q 1118 1396 1119 1399 L 1102 1413 Q 1099 1412 1100 1415 L 1093 1419 L 1088 1427 Q 1085 1426 1086 1429 L 1084 1430 L 1079 1436 Q 1080 1438 1078 1437 L 1075 1442 L 1072 1443 L 1053 1470 L 1032 1510 L 1029 1523 L 1026 1528 L 1026 1532 L 1023 1536 L 1021 1549 L 1019 1552 Q 1020 1559 1017 1562 L 1016 1588 L 1014 1592 L 1015 1596 L 1015 1606 L 1014 1607 Q 1013 1611 1015 1613 L 1015 1626 L 1014 1627 L 1017 1638 L 1017 1655 L 1023 1675 L 1023 1686 L 1035 1729 L 1049 1770 L 1063 1796 L 1069 1812 Q 1077 1819 1081 1831 L 1084 1832 L 1090 1843 Q 1089 1845 1092 1844 Q 1097 1846 1098 1853 L 1103 1857 Q 1102 1859 1105 1858 L 1116 1872 L 1122 1875 L 1124 1879 L 1162 1904 L 1165 1904 L 1168 1907 L 1171 1907 L 1187 1915 L 1192 1915 L 1206 1921 L 1213 1921 L 1215 1923 L 1223 1924 L 1226 1926 L 1243 1927 L 1248 1929 L 1261 1929 L 1262 1930 Q 1271 1931 1275 1928 L 1276 1924 L 1276 1922 L 1280 1909 L 1282 1907 L 1284 1894 Q 1289 1888 1290 1879 L 1292 1877 L 1294 1867 L 1299 1857 L 1299 1853 L 1301 1851 L 1304 1837 L 1306 1835 L 1307 1827 L 1315 1805 L 1315 1800 L 1317 1797 L 1317 1790 L 1319 1788 L 1322 1765 L 1324 1763 L 1323 1760 L 1323 1758 L 1325 1753 L 1325 1745 L 1327 1740 L 1326 1737 L 1328 1731 L 1330 1689 L 1332 1686 L 1330 1675 L 1332 1672 Q 1333 1667 1331 1666 Q 1329 1659 1332 1658 L 1331 1643 L 1330 1642 L 1331 1640 L 1331 1629 L 1329 1619 L 1330 1617 L 1330 1610 L 1327 1598 L 1328 1594 L 1328 1587 L 1324 1574 L 1325 1565 L 1325 1563 L 1318 1539 L 1314 1510 L 1297 1459 L 1297 1456 L 1283 1414 L 1266 1380 L 1258 1357 L 1255 1355 L 1252 1349 L 1248 1348 Z M 1562 1882 L 1560 1883 Q 1557 1884 1558 1889 Q 1559 1891 1564 1890 Q 1567 1889 1566 1885 L 1562 1882 Z " /><path fill="rgb(64,63,54)" stroke="rgb(64,63,54)" stroke-width="1" opacity="0.9725490196078431" d="M 1204.5 1564 L 1213.5 1565 L 1221 1571.5 L 1238 1611.5 L 1238 1614.5 L 1249 1645.5 L 1250 1652.5 L 1248 1661.5 L 1244.5 1665 Q 1237.4 1672.4 1222.5 1672 L 1212.5 1668 L 1209 1664.5 L 1205 1652.5 L 1201 1621.5 L 1198 1613.5 L 1198 1601.5 L 1195 1587.5 L 1195 1576.5 L 1198.5 1567 L 1204.5 1564 Z " /><path fill="rgb(64,63,54)" stroke="rgb(64,63,54)" stroke-width="1" opacity="0.9725490196078431" d="M 1135.5 1577 L 1140.5 1577 L 1149 1583.5 L 1157 1608.5 L 1160 1628.5 Q 1165.8 1642.2 1168 1659.5 L 1172 1669.5 L 1172 1677.5 L 1164.5 1687 L 1148.5 1692 Q 1147.2 1689.7 1142.5 1691 L 1136 1686.5 L 1130 1675.5 L 1130 1660.5 L 1128 1650.5 Q 1130.5 1649 1129 1643.5 L 1127 1636.5 L 1125 1617.5 L 1126 1615.5 L 1123 1601.5 L 1123 1595.5 Q 1125.8 1593.8 1124 1587.5 L 1123 1586.5 L 1126 1583.5 L 1127.5 1581 L 1135.5 1577 Z " /><path fill="rgb(239,218,71)" stroke="rgb(239,218,71)" stroke-width="1" opacity="0.996078431372549" d="M 1414.5 775 L 1413.5 777 L 1414.5 775 Z " /><path fill="rgb(239,218,71)" stroke="rgb(239,218,71)" stroke-width="1" opacity="0.996078431372549" d="M 1810.5 912 L 1809.5 914 L 1810.5 912 Z " /><path fill="rgb(239,218,71)" stroke="rgb(239,218,71)" stroke-width="1" opacity="0.996078431372549" d="M 1469 953 L 1472 954.5 Q 1473.1 958.7 1469 957 L 1469 953 Z " /><path fill="rgb(239,218,71)" stroke="rgb(239,218,71)" stroke-width="1" opacity="0.996078431372549" d="M 1745.5 1138 L 1745.5 1141 L 1742 1142 Q 1740.3 1137.9 1744.5 1139 L 1745.5 1138 Z " /><path fill="rgb(239,218,71)" stroke="rgb(239,218,71)" stroke-width="1" opacity="0.996078431372549" d="M 1417.5 1305 L 1425.5 1306 L 1429.5 1305 L 1437 1308.5 L 1440 1315.5 L 1448 1323.5 L 1453 1333 L 1456 1334.5 Q 1459.3 1344.2 1467 1349.5 L 1471 1359.5 Q 1479.4 1366.6 1483 1378.5 L 1491 1388.5 L 1496 1402.5 Q 1503 1409.5 1507 1419.5 L 1512 1435.5 L 1524 1456.5 L 1546 1522.5 L 1548 1530.5 L 1548 1539.5 L 1549 1540.5 L 1549 1542.5 L 1549 1546.5 L 1558 1579.5 L 1557 1582.5 L 1557 1584.5 L 1558 1593.5 L 1562 1606.5 L 1562 1611.5 L 1562 1613.5 L 1561 1617.5 L 1565 1637.5 L 1564 1638.5 L 1564 1647.5 L 1566 1656.5 L 1565 1657.5 L 1565 1668.5 Q 1567.2 1669.8 1566 1674.5 Q 1563.2 1676.2 1564 1681.5 L 1566 1689.5 L 1564 1695.5 L 1565 1696.5 L 1565 1708.5 L 1564 1709.5 L 1564 1727.5 L 1563 1730.5 L 1563 1732.5 L 1564 1735.5 Q 1561.2 1738.2 1562 1744.5 L 1563 1746.5 L 1561 1751.5 L 1561 1760.5 L 1559 1768.5 L 1560 1770.5 L 1557 1778.5 L 1558 1780.5 L 1555 1792.5 L 1556 1794.5 L 1554 1799.5 L 1554 1805.5 L 1552 1810.5 L 1550 1825.5 Q 1545.8 1830.8 1546 1840.5 L 1544 1842.5 L 1542 1856.5 L 1540 1858.5 L 1539 1865.5 L 1537 1867.5 L 1537 1872.5 L 1532 1883.5 L 1532 1887.5 L 1529 1893.5 L 1528 1899.5 L 1524.5 1903 L 1489.5 1913 L 1479.5 1915 L 1470.5 1915 L 1443.5 1922 L 1428.5 1922 Q 1419.3 1926.8 1405.5 1927 L 1400.5 1926 L 1396.5 1927 L 1393 1924.5 L 1392 1920.5 L 1408 1891.5 L 1409 1886.5 L 1416 1872.5 L 1416 1869.5 L 1419 1865.5 L 1421 1855.5 L 1424 1852.5 L 1424 1847.5 L 1430 1830.5 L 1430 1825.5 L 1434 1815.5 L 1435 1807.5 L 1437 1805.5 L 1437 1800.5 L 1442 1780.5 L 1443 1766.5 L 1445 1761.5 L 1445 1752.5 L 1448 1741.5 L 1451 1688.5 L 1450 1685.5 Q 1453 1683.5 1452 1677.5 Q 1449.1 1673.9 1450 1666.5 Q 1452.8 1664.7 1451 1658.5 L 1450 1657.5 L 1449 1617.5 L 1446 1606.5 L 1446 1598.5 L 1447 1594.5 L 1442 1578.5 L 1441 1566.5 L 1441 1564.5 L 1440 1554.5 L 1433 1533.5 L 1429 1506.5 L 1421 1480.5 L 1417 1468.5 L 1401 1436.5 L 1393 1410.5 L 1389 1402 Q 1386.3 1403.1 1387 1400.5 L 1382 1392.5 L 1375 1374.5 L 1368 1365.5 L 1360.5 1350 L 1356 1346.5 L 1353 1338 L 1347 1335 L 1339 1320.5 L 1343.5 1317 L 1352.5 1314 L 1367.5 1312 L 1372.5 1313 L 1387.5 1308 L 1395.5 1307 L 1396.5 1308 L 1404.5 1308 L 1417.5 1305 Z " /><path fill="rgb(239,218,71)" stroke="rgb(239,218,71)" stroke-width="1" opacity="0.996078431372549" d="M 1542.5 1319 L 1552.5 1324 L 1555.5 1324 L 1573.5 1332 L 1576.5 1332 L 1578.5 1334 L 1582.5 1334 L 1585.5 1337 L 1591.5 1340 L 1594.5 1340 L 1612 1349.5 Q 1611.1 1352.5 1615.5 1351 L 1636.5 1366 L 1646 1370 L 1648.5 1374 L 1671 1390 L 1672.5 1393 L 1686 1404.5 L 1687.5 1407 L 1697 1414 Q 1698.6 1416.1 1698 1421.5 L 1697 1424.5 L 1698 1425.5 L 1699 1443.5 L 1701 1452.5 L 1732 1547.5 L 1738 1571.5 L 1737 1576.5 L 1743 1599.5 L 1743 1617.5 L 1745 1622.5 L 1746 1654.5 L 1745 1656.5 L 1747 1663.5 L 1747 1669.5 L 1746 1670.5 L 1746 1678.5 Q 1748.2 1679.8 1747 1684.5 L 1745 1688.5 L 1746 1689.5 L 1746 1697.5 L 1745 1698.5 L 1745 1708.5 L 1746 1710.5 L 1744 1715.5 L 1743 1741.5 L 1743 1743.5 L 1742 1745.5 L 1741 1768.5 L 1737.5 1773 Q 1735.3 1772.3 1736 1774.5 L 1727.5 1786 L 1723 1789.5 L 1722 1793 L 1717 1796.5 L 1707.5 1808 L 1701 1811 L 1695.5 1818 L 1687 1823 L 1683.5 1828 L 1675 1832.5 L 1670.5 1838 Q 1663 1840 1659.5 1846 L 1647.5 1851 Q 1644.3 1856.3 1637.5 1858 Q 1634.3 1856.3 1636 1849.5 L 1644 1835.5 L 1646 1827 Q 1649.7 1828.3 1648 1822.5 L 1651 1819.5 L 1651 1815.5 L 1655 1805.5 L 1655 1801.5 L 1660 1790.5 L 1660 1785.5 L 1662 1783.5 L 1662 1777.5 L 1665 1773.5 L 1667 1751.5 L 1669 1748.5 L 1671 1733.5 L 1670 1730.5 L 1672 1726.5 Q 1670.3 1720.3 1673 1718.5 L 1675 1679.5 L 1674 1678.5 L 1674 1667.5 L 1675 1665.5 L 1674 1662.5 L 1673 1650.5 Q 1675.5 1649 1674 1643.5 Q 1670.7 1637.8 1671 1628.5 Q 1673.5 1627 1672 1621.5 L 1668 1608.5 L 1668 1597.5 L 1667 1596.5 L 1666 1584.5 L 1659 1563.5 L 1657 1548.5 L 1652 1536.5 L 1652 1528.5 L 1650 1519.5 L 1642 1505.5 L 1636 1485.5 L 1632 1481.5 L 1624 1456.5 L 1615 1442.5 L 1608 1424.5 L 1600 1415.5 Q 1598.1 1405.9 1592.5 1400 Q 1590.3 1400.8 1591 1398.5 L 1584 1385 Q 1581.3 1386.1 1582 1383.5 L 1563 1356.5 L 1556 1349.5 L 1553 1343 L 1547 1338.5 L 1543.5 1332 Q 1538.5 1332.5 1538 1328.5 L 1536 1321 L 1542.5 1319 Z " /><path fill="rgb(239,218,71)" stroke="rgb(239,218,71)" stroke-width="1" opacity="0.996078431372549" d="M 1247.5 1348 L 1252 1349 L 1255 1355 L 1258 1356.5 L 1266 1379.5 L 1283 1413.5 L 1297 1455.5 L 1297 1458.5 L 1314 1509.5 L 1318 1538.5 L 1325 1562.5 L 1325 1564.5 L 1324 1573.5 L 1328 1586.5 L 1328 1593.5 L 1327 1597.5 L 1330 1609.5 L 1330 1616.5 L 1329 1618.5 L 1331 1628.5 L 1331 1639.5 L 1330 1641.5 L 1331 1642.5 L 1332 1657.5 Q 1329.3 1659.3 1331 1665.5 Q 1333.3 1666.7 1332 1671.5 L 1330 1674.5 L 1332 1685.5 L 1330 1688.5 L 1328 1730.5 L 1326 1736.5 L 1327 1739.5 L 1325 1744.5 L 1325 1752.5 L 1323 1757.5 L 1323 1759.5 L 1324 1762.5 L 1322 1764.5 L 1319 1787.5 L 1317 1789.5 L 1317 1796.5 L 1315 1799.5 L 1315 1804.5 L 1307 1826.5 L 1306 1834.5 L 1304 1836.5 L 1301 1850.5 L 1299 1852.5 L 1299 1856.5 L 1294 1866.5 L 1292 1876.5 L 1290 1878.5 Q 1288.7 1887.7 1284 1893.5 L 1282 1906.5 L 1280 1908.5 L 1276 1921.5 L 1276 1923.5 L 1275 1928 Q 1270.8 1931 1261.5 1930 L 1260.5 1929 L 1247.5 1929 L 1242.5 1927 L 1225.5 1926 L 1222.5 1924 L 1214.5 1923 L 1212.5 1921 L 1205.5 1921 L 1191.5 1915 L 1186.5 1915 L 1170.5 1907 L 1167.5 1907 L 1164.5 1904 L 1161.5 1904 L 1124 1878.5 L 1121.5 1875 L 1116 1871.5 L 1105 1858 Q 1102.3 1859.1 1103 1856.5 L 1098 1852.5 Q 1096.6 1846.4 1091.5 1844 Q 1089.3 1844.8 1090 1842.5 L 1083.5 1832 L 1081 1830.5 Q 1077 1819 1069 1811.5 L 1063 1795.5 L 1049 1769.5 L 1035 1728.5 L 1023 1685.5 L 1023 1674.5 L 1017 1654.5 L 1017 1637.5 L 1014 1626.5 L 1015 1625.5 L 1015 1612.5 Q 1012.7 1611.2 1014 1606.5 L 1015 1605.5 L 1015 1595.5 L 1014 1591.5 L 1016 1587.5 L 1017 1561.5 Q 1020.4 1558.9 1019 1551.5 L 1021 1548.5 L 1023 1535.5 L 1026 1531.5 L 1026 1527.5 L 1029 1522.5 L 1032 1509.5 L 1053 1469.5 L 1072 1443 L 1075 1441.5 L 1077.5 1437 Q 1079.8 1437.8 1079 1435.5 L 1083.5 1430 L 1086 1428.5 Q 1085.3 1426.3 1087.5 1427 L 1093 1419 L 1100 1414.5 Q 1099.3 1412.3 1101.5 1413 L 1119 1398.5 Q 1118.3 1396.3 1120.5 1397 L 1132 1388.5 L 1133.5 1386 L 1149 1379 Q 1147.9 1376.3 1150.5 1377 L 1153.5 1374 L 1167.5 1369 L 1190.5 1357 L 1212.5 1350 L 1231.5 1349 Q 1234.5 1352 1241.5 1351 L 1247.5 1348 Z M 1205 1564 L 1199 1567 L 1195 1577 L 1195 1588 L 1198 1602 L 1198 1614 L 1201 1622 L 1205 1653 L 1209 1665 L 1213 1668 L 1223 1672 Q 1237 1672 1245 1665 L 1248 1662 L 1250 1653 L 1249 1646 L 1238 1615 L 1238 1612 L 1221 1572 L 1214 1565 L 1205 1564 Z M 1136 1577 L 1128 1581 L 1126 1584 L 1123 1587 L 1124 1588 Q 1126 1594 1123 1596 L 1123 1602 L 1126 1616 L 1125 1618 L 1127 1637 L 1129 1644 Q 1131 1649 1128 1651 L 1130 1661 L 1130 1676 L 1136 1687 L 1143 1691 Q 1147 1690 1149 1692 L 1165 1687 L 1172 1678 L 1172 1670 L 1168 1660 Q 1166 1642 1160 1629 L 1157 1609 L 1149 1584 L 1141 1577 L 1136 1577 Z " /><path fill="rgb(239,218,71)" stroke="rgb(239,218,71)" stroke-width="1" opacity="0.996078431372549" d="M 1776.5 1439 L 1775.5 1441 L 1776.5 1439 Z " /><path fill="rgb(239,218,71)" stroke="rgb(239,218,71)" stroke-width="1" opacity="0.996078431372549" d="M 1561.5 1882 L 1566 1884.5 Q 1566.8 1889.3 1563.5 1890 Q 1559 1891 1558 1888.5 Q 1557 1884 1559.5 1883 L 1561.5 1882 Z " /><path fill="rgb(239,218,71)" stroke="rgb(239,218,71)" stroke-width="1" opacity="0.996078431372549" d="M 1439.5 1966 L 1441 1969 L 1437.5 1970 L 1437 1968.5 L 1439.5 1966 Z " /></svg>