<svg xmlns="http://www.w3.org/2000/svg" xmlns:xlink="http://www.w3.org/1999/xlink" width="250" zoomAndPan="magnify" viewBox="0 0 187.5 187.499992" height="250" preserveAspectRatio="xMidYMid meet" version="1.0"><defs><g/></defs><path fill="#000000" d="M 117.367188 62.992188 C 117.140625 63.214844 116.882812 63.414062 116.589844 63.578125 C 114.851562 64.566406 112.640625 63.960938 111.65625 62.222656 C 110.054688 59.402344 108.066406 56.796875 105.75 54.484375 C 104.335938 53.066406 104.335938 50.777344 105.75 49.363281 C 107.164062 47.949219 109.457031 47.949219 110.871094 49.363281 C 113.648438 52.136719 116.027344 55.257812 117.949219 58.640625 C 118.773438 60.089844 118.488281 61.867188 117.367188 62.992188 " fill-opacity="1" fill-rule="nonzero"/><path fill="#000000" d="M 99.257812 46.402344 C 98.21875 47.441406 96.605469 47.78125 95.191406 47.136719 C 86.742188 43.277344 76.859375 42.828125 68.078125 45.914062 C 66.191406 46.578125 64.121094 45.582031 63.460938 43.695312 C 62.796875 41.808594 63.792969 39.742188 65.679688 39.078125 C 76.363281 35.328125 87.914062 35.847656 98.199219 40.546875 C 100.019531 41.378906 100.820312 43.527344 99.988281 45.347656 C 99.804688 45.75 99.554688 46.105469 99.257812 46.402344 " fill-opacity="1" fill-rule="nonzero"/><path fill="#000000" d="M 128.402344 80.117188 C 128.402344 93.011719 123.378906 105.140625 114.257812 114.257812 C 105.140625 123.378906 93.011719 128.402344 80.117188 128.402344 C 67.21875 128.402344 55.09375 123.378906 45.976562 114.257812 C 36.855469 105.140625 31.832031 93.011719 31.832031 80.117188 C 31.832031 67.21875 36.855469 55.09375 45.976562 45.976562 C 55.09375 36.855469 67.21875 31.832031 80.117188 31.832031 C 93.011719 31.832031 105.140625 36.855469 114.257812 45.976562 C 123.378906 55.09375 128.402344 67.21875 128.402344 80.117188 Z M 37.441406 37.441406 C 13.871094 61.007812 13.871094 99.222656 37.441406 122.792969 C 60.054688 145.40625 96.144531 146.320312 119.851562 125.542969 L 122.140625 127.828125 C 121.425781 130.511719 122.113281 133.492188 124.214844 135.597656 L 158.664062 170.042969 C 161.808594 173.1875 166.902344 173.1875 170.046875 170.042969 C 173.1875 166.902344 173.1875 161.804688 170.046875 158.664062 L 135.597656 124.214844 C 133.492188 122.113281 130.511719 121.421875 127.828125 122.140625 L 125.542969 119.851562 C 146.320312 96.144531 145.40625 60.054688 122.792969 37.441406 C 99.222656 13.871094 61.007812 13.871094 37.441406 37.441406 " fill-opacity="1" fill-rule="nonzero"/><g fill="#000000" fill-opacity="1"><g transform="translate(29.282271, 100.604763)"><g><path d="M 2.75 0.09375 C 2.40625 0.09375 2.097656 0.0234375 1.828125 -0.109375 C 1.566406 -0.253906 1.363281 -0.453125 1.21875 -0.703125 C 1.082031 -0.953125 1.015625 -1.226562 1.015625 -1.53125 C 1.015625 -1.84375 1.082031 -2.125 1.21875 -2.375 C 1.363281 -2.625 1.566406 -2.816406 1.828125 -2.953125 C 2.097656 -3.097656 2.40625 -3.171875 2.75 -3.171875 C 3.09375 -3.171875 3.394531 -3.097656 3.65625 -2.953125 C 3.925781 -2.816406 4.128906 -2.625 4.265625 -2.375 C 4.410156 -2.132812 4.484375 -1.859375 4.484375 -1.546875 C 4.484375 -1.078125 4.320312 -0.6875 4 -0.375 C 3.6875 -0.0625 3.269531 0.09375 2.75 0.09375 Z M 2.75 0.09375 "/></g></g></g></svg>